<svg xmlns="http://www.w3.org/2000/svg" xmlns:xlink="http://www.w3.org/1999/xlink" xmlns:serif="http://www.serif.com/" width="100%" height="100%" viewBox="0 0 1602 615" xml:space="preserve" style="fill-rule:evenodd;clip-rule:evenodd;stroke-linejoin:round;stroke-miterlimit:2;"><path d="M307.37,614.742c-41.492,-0 -81.746,-8.125 -119.644,-24.152c-36.602,-15.485 -69.471,-37.644 -97.7,-65.872c-28.227,-28.229 -50.389,-61.1 -65.87,-97.698c-16.029,-37.9 -24.156,-78.152 -24.156,-119.645c0,-41.496 8.127,-81.749 24.156,-119.647c15.481,-36.602 37.643,-69.472 65.87,-97.702c28.229,-28.226 61.098,-50.388 97.7,-65.869c37.898,-16.029 78.152,-24.157 119.644,-24.157c41.496,0 81.747,8.128 119.645,24.157c36.6,15.481 69.473,37.643 97.702,65.869c28.224,28.23 50.388,61.1 65.868,97.702c16.029,37.898 24.156,78.151 24.156,119.647c-0,41.493 -8.127,81.745 -24.156,119.645c-15.48,36.598 -37.644,69.469 -65.868,97.698c-28.229,28.228 -61.102,50.387 -97.702,65.872c-37.898,16.027 -78.149,24.152 -119.645,24.152" style="fill:#fff;fill-rule:nonzero;"></path><path d="M467.151,282.926c0.036,0.568 -0.318,1.067 -0.497,1.882c-0.177,0.816 -0.816,2.093 -0.887,2.556c-0.069,0.461 -0.388,0.39 -0.462,1.383c-0.071,0.994 -0.211,2.84 -0.211,3.122c-0,0.286 -0.071,0.534 -0.357,0.675c-0.282,0.143 -1.24,0.426 -1.416,0.212c-0.18,-0.212 -2.628,-5.641 -2.736,-5.712c-0.105,-0.071 -1.064,-2.022 -1.348,-2.591c-0.283,-0.567 -1.062,-1.278 -1.172,-1.421c-0.104,-0.142 -1.028,-1.278 -1.028,-1.278c0,0 -0.925,-1.029 -1.065,-1.241c-0.143,-0.213 -1.239,-1.242 -1.314,-1.454c-0.07,-0.214 -1.134,-1.029 -1.205,-1.454c-0.073,-0.428 -0.71,-1.386 -0.889,-2.132c-0.177,-0.745 -0.423,-2.837 -0.423,-2.944c-0,-0.106 0.177,-2.307 0.177,-2.307c0,-0 0.177,-1.243 0.246,-1.385c0.071,-0.143 1.138,-1.028 1.138,-1.028c0.211,0 0.815,0.283 1.1,0.354c0.283,0.071 2.341,-0.71 2.698,-0.744c0.354,-0.037 1.243,-0.178 1.595,-0c0.357,0.177 1.348,0.541 1.456,0.748c0.105,0.208 0.462,1.168 0.779,1.593c0.322,0.427 0.673,1.455 0.889,1.705c0.212,0.246 0.283,0.921 1.065,1.454c0.783,0.531 1.523,1.172 1.773,1.418c0.248,0.251 0.248,0.356 0.498,0.853c0.249,0.496 0.389,0.887 0.568,1.56c0.177,0.675 0.214,1.848 0.531,2.629c0.322,0.779 0.462,1.737 0.497,2.056c0.036,0.319 -0.035,0.924 -0,1.491m-21.98,27.362c-0.376,0.733 -0.616,1.917 -0.616,2.157c-0,0.235 -0.187,1.827 -0.33,2.099c-0.14,0.265 -0.518,0.549 -0.85,0.879c-0.333,0.33 -0.238,0.285 -1.277,0.855c-1.044,0.565 -2.699,0.992 -2.934,1.037c-0.238,0.049 -2.273,0.241 -2.509,0.241c-0.237,-0 -1.987,-0.713 -2.414,-0.806c-0.428,-0.098 -0.944,-0.522 -1.231,-0.9c-0.283,-0.378 -1.42,-1.306 -1.42,-1.306c-0,0 -0.846,-0.83 -0.708,-1.583c0.165,-0.882 0.661,-2.172 1.277,-2.835c0.615,-0.668 0.758,-1.278 1.799,-1.799c1.043,-0.52 1.326,-0.707 2.651,-0.707c1.324,-0 2.838,0.232 3.548,0.232c0.71,-0 1.56,-0.232 3.027,-0.232c1.469,-0 2.128,0.138 2.225,0.28c0.094,0.143 0.377,0.517 0.426,0.9c0.049,0.378 -0.283,0.756 -0.664,1.488m-16.419,-46.726c-1.278,1.23 -1.658,1.466 -2.175,1.94c-0.52,0.472 -0.757,0.806 -1.231,1.467c-0.473,0.661 -0.616,0.757 -1.09,1.56c-0.47,0.806 -0.992,2.13 -1.086,2.415c-0.094,0.283 -0.808,1.04 -0.948,1.987c-0.141,0.947 -0.474,1.703 -0.663,2.176c-0.187,0.474 -0.851,1.419 -1.514,1.61c-0.661,0.188 -1.988,0.283 -1.988,0.283l-1.184,-0.616c-0.093,-0.615 -0.28,-9.936 -0.28,-10.835c-0,-0.9 -0.33,-8.614 0.28,-9.417c0.617,-0.804 3.789,-4.779 4.402,-4.779c0.617,0 2.318,-0.472 2.318,-0.472l1.847,-0c0.192,-0 2.932,0.33 3.125,0.379c0.187,0.044 2.081,0.044 2.508,0.14c0.424,0.095 1.418,0.71 1.608,0.852c0.188,0.143 1.183,1.136 1.183,1.136c-0,-0 0.804,1.277 0.945,1.277c0.142,0 0.804,0.616 0.992,0.757c0.192,0.145 1.278,0.901 1.705,1.088c0.427,0.192 2.224,1.135 2.557,1.373c0.329,0.236 1.087,0.9 1.231,1.04c0.14,0.144 0.661,1.136 0.943,1.469c0.284,0.332 1.091,1.467 1.278,1.796c0.189,0.332 0.57,2.651 0.663,3.122c0.094,0.475 0.475,1.941 0.522,2.654c0.046,0.708 -0.047,1.371 -0,1.56c0.046,0.189 -0.286,1.135 -0.522,1.845c-0.235,0.71 -1.136,2.081 -1.277,2.415c-0.142,0.33 -1.184,1.607 -1.278,1.749c-0.095,0.143 -1.373,1.421 -1.513,1.514c-0.143,0.094 -1.137,0.663 -1.278,0.71c-0.142,0.046 -1.184,0.236 -1.656,0.236c-0.473,0 -1.704,-0.568 -1.704,-0.568c0,0 -0.757,-1.182 -0.804,-1.275c-0.047,-0.095 -0.474,-2.132 -0.474,-2.132c0,0 0.093,-2.317 0.142,-2.462c0.049,-0.138 -0.142,-3.214 -0.142,-3.214c0,0 0.093,-2.178 0.142,-2.651c0.049,-0.474 0.094,-1.611 0.143,-2.27c0.048,-0.663 -0.049,-2.319 -0.049,-2.319l-1.087,-0.378l-1.987,0.282l-1.278,1.042c-0,-0 -0.048,0.283 -1.326,1.514m-2.873,35.299c0.035,0.249 -0.321,0.959 -0.426,1.244c-0.107,0.283 -0.428,0.708 -0.853,1.277c-0.425,0.568 -1.491,1.455 -1.634,1.703c-0.14,0.248 -0.885,1.027 -0.885,1.169c0,0.143 -0.709,0.786 -1.137,1.347c-0.425,0.57 -0.639,0.892 -1.064,1.318c-0.427,0.424 -1.349,0.92 -1.349,0.92c0,0 -0.069,0.285 -0.673,0.537c-0.604,0.244 -1.953,0.708 -1.953,0.708c-0,-0 -0.496,0.139 -1.81,0.285c-1.313,0.138 -4.258,0.423 -4.258,0.423c-0,0 0.071,0.037 -0.214,0c-0.282,-0.032 -1.42,-0.639 -2.481,-0.708c-1.067,-0.073 -1.882,-0.146 -1.882,-0.146c-0,-0 -0.605,-0.033 -1.494,-0.066c-0.887,-0.041 -2.482,-0.146 -2.482,-0.146c-0.638,-0.106 -1.491,0.074 -2.13,-0.069c-0.639,-0.143 -0.779,0.354 -1.418,-0.566c-0.641,-0.927 -0.996,-1.953 -0.996,-1.953l-0.424,-0.358l-0.498,-1.526c-0.106,-0.531 -0.567,-1.913 -0.462,-2.199c0.106,-0.282 0.851,-2.414 1.101,-2.945c0.248,-0.533 0.283,-0.887 0.958,-1.099c0.673,-0.213 2.521,-0.96 2.521,-0.96c-0,0 1.56,-0.389 1.668,-0.389c0.103,0 2.02,0.106 2.553,0c0.533,-0.108 2.52,-0.25 2.52,-0.25l2.094,0c-0,0 2.093,-0.248 2.307,-0.283c0.213,-0.036 1.811,-0.285 1.95,-0.319c0.145,-0.037 2.381,-0.319 2.381,-0.319l1.739,0c-0,0 1.666,-0.248 1.772,-0.248c0.108,-0 2.913,-0.18 2.913,-0.18c0,-0 0.957,-0.034 1.062,-0c0.106,0.037 1.066,0.428 1.209,0.497c0.14,0.072 0.604,0.284 0.779,0.569c0.177,0.283 0.498,0.568 0.675,0.816c0.177,0.25 0.213,0.533 0.321,0.887c0.107,0.354 -0.036,0.782 0,1.029m-0.628,29.387c-0,0 -0.568,2.368 -0.661,2.485c-0.096,0.119 -0.523,1.535 -0.663,1.677c-0.141,0.142 -0.804,1.046 -1.325,1.184c-0.521,0.142 -1.705,0.993 -2.083,1.042c-0.378,0.048 -2.366,0.708 -3.456,0.805c-1.086,0.09 -1.937,0.472 -3.215,0.566c-1.28,0.093 -1.8,-0 -2.461,-0.094c-0.664,-0.098 -1.327,-0.707 -1.327,-0.707c0,-0 -1.039,-1.519 -1.324,-1.848c-0.283,-0.333 -0.474,-0.993 -0.663,-1.277c-0.187,-0.285 -1.18,-1.348 -1.18,-1.348c0,0 -0.665,0.021 -1.277,0.021c-0.617,-0 -1.42,-0.048 -1.659,-0c-0.235,0.049 -1.893,1.184 -2.557,1.514c-0.661,0.333 -1.133,0.993 -1.607,1.277c-0.474,0.285 -1.845,1.326 -1.988,1.425c-0.14,0.093 -1.277,0.992 -1.845,1.326c-0.569,0.333 -1.56,0.895 -2.13,0.944c-0.567,0.045 -2.695,0.093 -3.642,-0c-0.947,-0.098 -1.375,-0.237 -1.991,-0.664c-0.612,-0.426 -1.227,-0.85 -1.32,-1.277c0,-0 -0.287,-1.803 -0.287,-1.99c-0,-0.187 0.474,-2.742 0.57,-3.312c0.093,-0.57 0.425,-1.416 0.473,-1.562c0.043,-0.143 0.945,-1.562 0.991,-1.749c0.049,-0.188 0.617,-1.042 0.806,-1.608c0.191,-0.569 0.995,-1.705 1.228,-1.892c0.236,-0.191 0.664,-0.57 1.138,-0.854c0.472,-0.285 0.9,-0.333 1.278,-0.57c0.377,-0.236 6.104,-1.514 6.579,-1.514c0.474,0 1.371,0 2.364,0.285c0.992,0.286 1.09,0.379 1.09,0.379c0,-0 1.654,0.711 1.845,0.85c0.189,0.147 1.607,0.993 1.75,1.14c0.14,0.138 1.513,0.85 2.174,1.041c0.667,0.188 1.518,0.236 2.985,0.85c1.464,0.615 1.666,0.2 3.548,0c5.798,-0.614 8.338,1.429 8.8,1.656c0.436,0.212 0.757,0.513 1.042,0.945c0.175,0.268 -0,0.854 -0,0.854m-40.174,-93.268l0.095,-2.058c-0,-0 -0.215,-1.42 -0,-2.555c0.211,-1.135 -0,-2.627 -0,-2.627c-0,0 0.639,-2.554 0.779,-3.051c0.143,-0.499 0.57,-2.273 0.782,-2.84c0.213,-0.568 0.568,-1.064 0.762,-1.49c0.198,-0.426 0.871,-0.923 3.569,-1.207c2.697,-0.284 2.056,0.709 2.98,0.994c0.923,0.283 2.128,2.341 2.696,2.9c0.569,0.557 0.071,1.857 0.164,2.636c0.092,0.781 0.474,7.24 -0.022,8.589c-0.494,1.348 0.14,3.408 -0,5.321c-0.142,1.919 -0.71,4.403 -0.852,4.759c-0.141,0.354 -0.568,2.626 -1.135,4.683c-0.57,2.059 -0.355,2.698 -0.639,3.479c-0.283,0.781 -1.205,3.69 -1.775,4.825c-0.567,1.138 -1.704,1.207 -1.916,1.207c-0.211,0 -2.27,-0.283 -2.626,-0.355c-0.357,-0.071 -0.499,-0.567 -0.428,-0.852c0,0 0.071,-1.845 0,-2.128c-0.071,-0.285 0.499,-1.987 0.499,-2.2c-0,-0.215 0.427,-1.207 0.568,-1.632c0.142,-0.426 0.852,-1.988 0.852,-2.557c0,-0.566 0.639,-1.136 0.639,-1.49c0,-0.354 0.14,-1.135 -0.072,-1.419c-0.211,-0.286 -0.497,-1.421 -0.497,-1.774c-0,-0.357 0.215,-1.209 0.215,-1.705c-0,-0.497 0.14,-0.901 0.14,-0.901c0,-0 -0.994,-0.802 -1.629,-1.157c-0.644,-0.355 -1.137,-0.709 -1.493,-1.065c-0.354,-0.354 -0.782,-1.278 -1.064,-2.128c-0.286,-0.853 -0.592,-2.202 -0.592,-2.202m-1.184,78.719c-0.424,0.569 -0.78,1.134 -1.066,1.134c-0.282,-0 -0.922,0.143 -1.844,0.708c-0.923,0.57 -1.844,1.277 -1.844,1.277c-0,0 -1.138,0.782 -1.278,1.209c-0.143,0.423 0.071,0.635 -0.639,0.851c-0.711,0.215 -0.993,-0.07 -1.56,-0c-0.57,0.068 -4.759,-1.778 -5.963,-2.06c-1.209,-0.28 -1.918,-0.707 -2.769,-0.707l-2.128,-0c0,-0 -1.42,0.211 -2.557,-0c-1.136,-0.216 -1.349,0.069 -1.988,-0.358c-0.638,-0.423 -1.135,-0.139 -0.994,-1.558c0.142,-1.421 -0.425,-3.199 -0.425,-3.199c-0,0 0.284,-0.781 -0,-2.27c-0.286,-1.489 1.064,-4.256 1.206,-4.752c0.142,-0.498 0.142,-1.137 0.425,-1.919c0.285,-0.779 0.358,-1.631 0.64,-1.987c0.284,-0.355 2.129,-0.922 2.129,-0.922c0.781,-0.142 1.987,0.354 2.344,1.347c0.353,0.995 0.493,1.491 0.781,2.415c0.282,0.922 1.418,2.84 1.915,3.405c0.495,0.569 0.141,1.136 1.773,1.705c1.635,0.57 3.053,0.212 4.048,0c0.993,-0.211 1.703,-0.427 2.767,-0.924c1.066,-0.496 1.634,-1.277 2.555,-1.774c0.924,-0.496 1.135,-0.565 1.42,-0.28c0.285,0.28 0.923,1.204 1.351,1.912c0.423,0.708 1.133,2.303 1.133,2.857c0,0.553 0.356,1.83 0.568,2.396c0.213,0.569 0.427,0.924 -0,1.494m-21.15,27.796c-0.474,1.042 -1.326,1.425 -1.798,2.369c-0.476,0.943 0,0.829 -1.61,2.498c-1.609,1.663 -1.515,1.192 -3.502,2.514c-1.986,1.326 -3.69,2.083 -4.352,2.84c-0.663,0.757 -1.611,1.326 -2.557,1.705c-0.944,0.379 -2.556,0.472 -2.556,0.472l-1.419,-1.038c-0.283,-1.041 -0.646,-3.502 2.232,-5.021c2.879,-1.513 2.689,-2.079 3.731,-2.742c1.041,-0.659 3.218,-2.457 4.07,-2.84c0.851,-0.378 2.082,-1.322 2.934,-1.606c0.85,-0.286 3.122,-0.701 3.596,-0.778c0.47,-0.073 1.703,0.586 1.231,1.627m-23,-41.545l-0.661,-2.271c-0,0 0.567,-1.704 0.661,-3.123c0.095,-1.422 1.042,-1.515 1.518,-1.722c0.47,-0.208 1.701,-0.739 3.972,-0.549c2.273,0.188 1.515,1.324 1.799,1.987c0.283,0.663 0.094,2.364 -0,2.742c-0.096,0.381 -0.57,1.895 -1.326,2.108c-0.757,0.211 -2.175,1.681 -3.405,1.869c-1.231,0.19 -2.273,-0.947 -2.558,-1.041m-2.978,-75.9c-0.143,-0.213 -0.781,-1.845 -0.855,-2.201c-0.071,-0.354 -1.204,-3.684 -1.204,-3.684c0.211,-1.709 1.062,-2.419 1.7,-2.847c0.641,-0.425 1.28,-1.135 2.985,-0.992c1.7,0.14 3.123,0.567 3.904,0.921c0.781,0.357 2.054,0.641 2.128,1.706c0.071,1.063 0.213,1.915 0.354,2.766c0.142,0.852 0.285,1.491 -0,2.413c-0.283,0.923 0.213,0.411 -1.135,1.52c-1.347,1.106 -2.112,1.888 -3.365,2.172c-1.249,0.285 -1.675,0.781 -2.242,0.497c-0.569,-0.284 -2.129,-2.057 -2.27,-2.271m13.105,11.639c1.326,-0.094 1.987,-0.19 2.84,0.284c0.852,0.475 1.985,1.138 2.272,1.231c0.283,0.096 1.418,-0 1.514,0.285c0.094,0.283 0.187,1.156 -0,1.334c-0.189,0.178 -0.57,1.221 -0.474,1.693c0.095,0.474 0.313,1.798 0.582,2.273c0.268,0.473 0.36,1.324 0.645,1.609c0.286,0.283 0.477,0.756 0.38,1.324c-0.094,0.568 0.097,0.378 -1.322,1.513c-1.42,1.136 -1.703,1.516 -1.988,1.705c-0.282,0.19 -1.137,0.472 -2.081,0.568c-0.948,0.096 -1.302,0.19 -2.402,0.852c-1.099,0.661 -1.573,0.187 -2.33,0.521c-0.758,0.33 -2.744,-0.427 -3.125,-1.563c-0.38,-1.136 -0.663,-1.515 -1.325,-2.176c-0.662,-0.663 -0.377,0 -1.039,-1.704c-0.665,-1.703 -0.947,-2.89 -0.57,-3.906c0.379,-1.016 0.947,-2.709 0.947,-2.709l-0.377,-0.862c0.565,-1.135 2.271,-1.894 3.689,-2.272c1.42,-0.379 2.839,0.095 4.164,-0m8.424,-35.915c0.19,-0.236 1.845,-1.467 2.273,-1.703c0.425,-0.235 1.229,-0.52 2.886,-0.52c1.654,-0 2.885,0.803 2.932,1.371c0.049,0.569 0,1.847 -0.239,2.321c-0.235,0.472 -1.179,1.418 -2.127,2.079c-0.946,0.665 -0.965,1.044 -2.045,0.948c-1.078,-0.093 -2.923,-0.332 -3.065,-0.332c-0.143,0 -1.254,-0.616 -1.254,-0.616c-0.404,-0.613 0.45,-3.309 0.639,-3.548m-2.368,129.609c-1.061,0.216 -0.624,0.285 -2.121,0.496c-1.498,0.216 -2.42,0.57 -2.99,0.639c-0.564,0.073 -1.702,0 -1.702,0c-0.354,-1.066 -0.85,-0.992 -0.993,-2.413c-0.14,-1.419 -0.71,-3.193 -0.356,-3.405c0.356,-0.212 1.777,-1.278 2.199,-1.278c0.428,0 1.349,0.139 1.99,0.566c0.637,0.427 1.008,1.847 1.852,2.128c0.844,0.285 3.116,1.278 3.187,1.492c0.072,0.217 -0,1.563 -1.066,1.775m-0.757,-45.523c-0.943,0 -3.122,-0.472 -3.594,-0.944l-2.369,-1.892l-1.132,-1.422l-0,-8.655c-0,-0.235 0.189,-1.944 0.567,-2.892c0.378,-0.945 -0,-2.459 -0,-2.459c-0,-0 0.661,-1.796 1.04,-2.46c0.38,-0.663 1.515,-1.705 2.557,-2.366c1.041,-0.663 1.418,-1.42 3.312,-2.225c1.894,-0.804 1.607,-0.426 2.744,-0.426c1.135,0 1.799,-0.189 2.175,0c0.381,0.189 2.177,1.327 3.313,2.273c1.138,0.946 0.662,1.516 1.515,3.309c0.852,1.801 0.756,2.273 1.041,3.63c0.287,1.355 -0.189,2.429 -0.38,2.807c-0.187,0.379 -0.47,1.705 -1.227,2.651c-0.762,0.947 -0.855,1.703 -1.611,3.361c-0.757,1.656 -0.661,1.843 -2.175,3.933c-1.516,2.089 -1.801,2.642 -2.558,2.833c-0.755,0.188 -2.27,0.944 -3.218,0.944m13.157,-65.536c0.142,0.331 1.513,0.9 2.034,2.129c0.519,1.231 0.899,2.082 0.899,2.888c0,0.803 0.236,0.852 0,1.94c-0.236,1.086 -0.095,1.702 -0.236,2.177c-0.144,0.472 -0.334,1.228 -0.663,1.371c-0.332,0.142 -0.521,0.616 -1.277,-0c-0.757,-0.615 -2.18,-1.609 -2.18,-1.75c0,-0.144 -1.132,-0.806 -1.702,-2.176c-0.568,-1.374 -1.654,-2.887 -1.705,-3.219c-0.043,-0.332 -0.33,-1.042 -0.33,-1.042l-0.329,-1.039l-0,-0.191c0.472,-0.804 0.519,-1.04 1.843,-1.088c1.327,-0.047 3.501,-0.33 3.646,-0m4.778,24.983c1.184,0.041 2.698,0.428 3.172,0.948c0.474,0.521 0.659,1.183 0.946,1.609c0.285,0.426 0.995,1.371 1.088,2.177c0.094,0.804 0.094,0.757 0,1.514c-0.097,0.756 0.19,1.231 -0.52,1.705c-0.711,0.472 -1.303,0.66 -2.048,1.466c-0.744,0.804 -1.928,0.757 -2.402,0.757c-0.474,-0 -1.845,-0.285 -1.987,-0.71c-0.141,-0.424 -1.134,-1.656 -1.086,-2.368c0.046,-0.707 -0.147,-2.413 -0.004,-3.074c0.144,-0.663 0.286,-1.562 0.853,-2.177c0.57,-0.614 1.37,-1.865 1.988,-1.847m37.052,-18.051c0.895,-0.713 4.256,-1.134 5.321,-0.992c1.067,0.14 4.334,-0.167 5.611,-0.047c1.274,0.116 3.972,0.324 4.898,-0.028c0.921,-0.352 1.916,-0.991 3.264,-1.063c1.349,-0.071 3.548,-0.14 4.969,0c1.417,0.143 1.987,0.84 2.909,1.024c0.923,0.183 1.916,1.178 2.483,1.887c0.568,0.709 1.988,2.271 2.13,2.484c0.141,0.214 0.496,0.568 0.568,1.563c0.071,0.993 0.212,1.347 0,2.057c-0.211,0.712 -0.639,1.135 -0.639,1.776c0,0.637 -0.282,2.056 -0.427,2.697c-0.141,0.637 -0.212,1.347 -0.851,1.703c-0.638,0.354 -0.781,0.211 -1.842,0.779c-1.066,0.57 -1.066,0.641 -2.627,1.209c-1.564,0.566 -1.847,0.566 -2.415,0.637c-0.569,0.073 -3.903,-0.141 -5.466,-0c-1.562,0.142 -2.626,0.923 -3.477,0.426c-0.854,-0.497 -0.498,-0.567 -0.994,-1.844c-0.499,-1.278 -0.781,-2.981 -0.851,-3.195c-0.071,-0.213 -1.137,-1.42 -1.491,-1.775c-0.356,-0.355 -0.427,-0.71 -1.705,-1.207c-1.277,-0.494 -1.56,-1.268 -3.265,-1.058c-1.703,0.208 -2.482,0.35 -3.691,0.42c-1.206,0.071 -2.342,0.638 -2.412,-0.07c-0.071,-0.71 0,-5.041 0,-5.253c0,-0.213 -0.557,-1.686 0,-2.13m-77.297,143.875c-0.568,0.922 -1.207,1.139 -1.278,2.058c-0.069,0.919 -1.56,0.638 -1.56,0.638c-1.138,-1.134 -1.917,-2.058 -2.273,-2.696c-0.354,-0.635 -1.417,-1.278 -1.346,-2.414c0.069,-1.135 0.069,-1.346 0.568,-2.055c0.496,-0.716 0.778,-1.847 1.631,-2.343c0.852,-0.496 1.845,-1.139 2.624,-0.643c0.782,0.496 0.854,1.493 1.137,1.921c0.285,0.423 0.285,2.445 0.497,3.067c0.213,0.623 0.569,1.546 -0,2.467m-8.92,-23.282c-0.755,-1.136 -1.893,-2.742 -2.176,-4.069c-0.285,-1.326 -0.946,-1.985 -1.324,-3.409c-0.379,-1.417 -2.179,-3.5 -2.179,-3.5c0,0 -0.838,0.286 -1.08,-2.176c-0.242,-2.462 0.336,-4.732 -0,-5.204c-0.338,-0.473 -0.62,-3.312 -0.62,-4.736c-0,-1.416 0.577,-2.929 0.62,-3.215c0.041,-0.284 -0.155,-1.879 1.08,-1.984c0,-0 5.398,-0.571 7.385,-0c1.986,0.565 4.443,3.026 4.919,4.255c0.472,1.229 1.798,3.975 1.894,5.301c0.094,1.323 0.189,3.785 -0,5.392c-0.189,1.611 0.094,2.84 -0.379,4.353c-0.474,1.514 -0.85,2.747 -1.043,3.503c-0.187,0.757 -0.187,1.234 -0.568,2.177c-0.376,0.944 -0.376,1.327 -0.943,2.083c-0.57,0.757 -0.951,1.612 -1.421,1.896c-0.473,0.281 -0.378,-0.382 -1.702,0c-1.327,0.374 -1.705,0.472 -2.463,-0.667m-4.78,52.38c-0.708,0.432 0,1.278 0,1.278c0,0 -0.993,3.125 -1.468,3.979c-0.477,0.851 -1.086,3.264 -2.079,4.398c-0.993,1.136 -0.286,2.129 -1.561,2.129l-0.57,-0c0,-0 -0.71,-1.416 -0.99,-2.555c-0.288,-1.136 -0.427,-3.833 -0.855,-5.111c-0.425,-1.277 -0.994,-4.54 -1.049,-5.96c-0.056,-1.421 -0.937,-2.556 -1.508,-4.826c-0.565,-2.274 -1.986,-5.115 -2.128,-6.53c-0.14,-1.42 -3.265,-5.253 -4.258,-6.388c-0.994,-1.136 -1.705,-2.555 -1.705,-3.833c0,-1.277 -0.568,-2.702 0,-3.976c0.57,-1.277 0,-3.124 0,-3.547c0,-0.427 1.563,-1.42 1.988,-1.278c0.427,0.143 2.698,1.278 2.698,1.278l2.414,2.698c-0,-0 2.129,3.548 2.413,3.971c0.283,0.427 1.843,4.118 2.555,5.541c0.71,1.416 2.556,4.826 4.189,8.089c1.631,3.263 1.349,1.847 2.059,3.124c0.708,1.279 1.135,3.406 1.135,3.406c-0,-0 -0.567,3.691 -1.28,4.113m-22.428,-60.936c-1.278,-1.38 -1.42,-1.523 -2.841,-3.935c-1.417,-2.413 -3.122,-2.502 -3.69,-4.589c-0.567,-2.083 0,-5.493 0,-6.059l0,-0.565c0.285,-1.563 5.538,-1.277 6.246,-1.277c0.711,-0 3.328,1.277 4.292,1.277c0.961,-0 5.218,1.986 5.218,1.986c-0,-0 0.713,2.555 1.137,2.981c0.425,0.424 0.425,2.129 0.853,3.121c0.425,0.993 1.278,3.834 1.987,5.965c0.709,2.128 0.426,3.69 1.278,4.968c0.853,1.277 0.567,1.843 1.28,3.833c0.708,1.989 1.418,4.26 1.418,4.26c-0,-0 0.994,1.416 1.417,2.412c0.428,0.993 0.995,2.129 1.279,2.836c0.284,0.712 1.136,1.425 -0,2.274c-1.136,0.851 -1.986,1.706 -3.124,1.99c-1.137,0.281 -2.099,0 -2.894,0c-0.796,0 -5.475,-4.402 -6.897,-6.819c-1.424,-2.408 -2.416,-5.249 -3.552,-7.95c-1.135,-2.694 -2.13,-5.33 -3.407,-6.709m-8.091,-30.907c-0.474,-0.756 -0.569,-0.476 -1.516,-2.176c-0.945,-1.703 -1.703,-1.516 -2.555,-3.504c-0.852,-1.987 -1.892,-2.459 -2.837,-4.068c-0.947,-1.609 -1.327,-1.42 -2.462,-3.691c-1.135,-2.271 -2.082,-3.501 -2.177,-3.787c-0.094,-0.281 -0.472,-0.379 -1.324,-1.701c-0.853,-1.326 -1.232,-1.609 -1.232,-2.84c0,-1.231 0,-1.324 0.664,-2.933c0.661,-1.609 0.851,-2.651 0.851,-3.597c-0,-0.946 -0,-1.04 0.378,-1.939c0.38,-0.901 0.474,-1.467 0.854,-2.036c0.378,-0.568 1.418,-0.853 1.418,-0.853c0.757,-0 2.651,0.853 3.123,1.327c0.474,0.474 1.894,1.513 2.083,2.174c0.189,0.666 0.472,1.327 0.757,2.557c0.283,1.231 0.472,2.462 0.661,2.841c0.189,0.378 1.705,2.459 2.177,2.837c0.474,0.378 1.483,1.516 2.445,2.462c0.962,0.944 1.815,1.701 2.761,2.366c0.945,0.663 1.42,1.324 2.083,2.175c0.661,0.854 1.513,2.026 2.459,3.049c0.946,1.023 1.042,0.548 1.324,2.061c0.285,1.516 0.19,2.179 0.473,3.125c0.285,0.946 -0.566,1.892 -0,2.742c0.569,0.853 0.665,1.892 0.665,2.368c-0,0.472 -0.665,1.42 -0.948,1.892c-0.283,0.472 -0.661,1.42 -1.892,1.514c-1.231,0.097 -1.892,-0.094 -3.029,-0c-1.135,0.097 -1.42,0.907 -2.27,0.028c-0.853,-0.879 -2.462,-1.636 -2.934,-2.393m-14.385,-51.296c0.094,-0.661 0.236,-1.464 0.472,-1.796c0.236,-0.333 0.663,-1.894 0.663,-1.894c0,-0 -1.163,-2.874 -0.756,-3.056c0.915,-0.411 1.798,-0.635 2.65,-0.445c0.851,0.189 1.939,0.463 2.317,0.445c0.379,-0.018 0.568,-0.116 0.899,0.548c0.332,0.663 1.325,1.751 1.941,2.368c0.615,0.614 1.656,1.277 2.367,1.892c0.71,0.613 0.803,0.756 0.851,1.324c0.045,0.568 0.284,0.946 0,1.324c-0.284,0.379 -0.57,0.523 -0.948,0.996c-0.377,0.471 -0.756,0.782 -0.992,1.242c-0.239,0.46 -0.378,0.981 -0.806,1.312c-0.425,0.329 -0.899,0.71 -1.135,0.804c-0.236,0.096 -2.177,-0.14 -2.838,-0.33c-0.663,-0.191 -0.899,-0.71 -1.469,-0.995c-0.565,-0.284 -1.656,-0.494 -1.845,-0.791c-0.189,-0.297 -0.663,-0.864 -0.992,-1.481c-0.332,-0.612 -0.474,-0.803 -0.379,-1.467m-0.474,48.361c-0.285,0.946 -0.474,2.272 -1.327,2.557c-0.849,0.284 -1.543,1.042 -2.901,1.042c-1.356,0 -2.588,1.607 -3.911,0c-1.325,-1.611 -2.271,-2.461 -2.271,-3.22c-0,-0.757 -0.663,-1.744 -0,-2.861c0.663,-1.115 1.136,-2.911 1.136,-3.763l-0,-1.514c-0,-0.852 0.756,-1.513 0.756,-1.513c0.474,-0 2.651,0.471 4.165,1.985c1.513,1.515 3.503,3.597 3.69,3.88c0.189,0.284 0.945,2.461 0.663,3.407m-6.476,25.269c-0.243,0.663 -0.433,0.756 -0.907,1.704c-0.472,0.948 -0.519,1.47 -1.371,1.612c-0.852,0.142 -1.938,0.142 -2.081,-0c-0.142,-0.142 -0.757,-0.24 -1.088,-1.139c-0.332,-0.9 -1.648,-2.556 -1.606,-2.698c0.044,-0.142 -1.14,-1.607 -1.849,-2.6c-0.71,-0.997 -1.373,-1.941 -2.319,-2.983c-0.946,-1.041 -1.656,-1.891 -2.461,-2.555c-0.804,-0.663 -0.804,0.285 -1.182,-1.134c-0.378,-1.42 -0.664,-1.706 -0.617,-2.368c0.049,-0.664 1.232,-2.743 1.232,-2.743c0.898,-0.52 3.218,0.191 3.692,0.427c0.471,0.236 2.601,1.798 3.451,2.364c0.853,0.566 1.659,1.233 2.319,1.892c0.664,0.663 2.699,1.847 3.361,2.698c0.664,0.855 0.757,1.09 0.899,1.468c0.141,0.379 0.473,0.851 0.519,1.844c0.049,0.993 -0.14,1.371 0,2.225c0.143,0.855 0.253,1.326 0.008,1.986m25.546,-129.654c0.047,-0.712 0.142,-1.609 0.189,-1.752c0.047,-0.142 0.993,-1.277 0.993,-1.277c0.568,-0.285 1.278,-0.142 1.562,0c0.284,0.142 1.327,0.757 1.845,1.135c0.522,0.379 0.71,0.757 1.988,1.231c1.278,0.472 2.081,1.042 2.366,1.182c0.285,0.143 0.285,0.946 0.758,1.514c0.473,0.567 0.993,0.758 1.134,1.279c0.145,0.521 0.238,0.566 -0.235,1.089c-0.473,0.52 -1.277,0.85 -1.422,0.85c-0.141,-0 -0.709,0.049 -1.655,-0c-0.946,-0.047 -3.265,-0.33 -3.405,-0.379c-0.143,-0.046 -0.379,-1.417 -0.713,-1.56c-0.329,-0.142 -1.557,-0.568 -1.938,-0.805c-0.379,-0.236 -1.182,-0.568 -1.278,-0.947c-0.095,-0.378 -0.238,-0.852 -0.189,-1.56m24.37,51.891c0.662,-0.597 1.704,-2.439 3.029,-2.561c1.446,-0.133 2.459,-0.023 4.257,0.451c1.799,0.471 3.786,0.944 4.543,1.322c0.757,0.378 1.418,1.231 2.271,2.18c0.852,0.945 0.758,1.416 1.137,2.27c0.378,0.852 0.472,2.66 0.472,3.411c0,0.753 -0.19,1.224 0,2.455c0.19,1.231 -0.094,1.8 0,2.558c0.096,0.757 -0.568,1.415 -1.418,2.174c-0.853,0.757 -0.663,1.988 -1.326,2.366c-0.661,0.381 -1.325,-0.093 -1.893,0c-0.567,0.094 -3.879,-3.028 -5.206,-5.582c-1.324,-2.555 -5.677,-5.678 -5.866,-5.963c-0.19,-0.284 -0.283,-0.378 -0.474,-1.041c-0.187,-0.664 0.284,-1.703 -0,-2.271c-0.283,-0.57 -0.187,-1.169 0.474,-1.769m1.23,-29.225c0.425,-0.711 0.9,-2.658 0.995,-2.629c0.091,0.026 0.708,-0.938 0.708,-0.938c1.373,-0.171 2.176,-0.031 2.555,0.207c0.378,0.236 0.949,1.086 1.327,1.465c0.378,0.38 0.708,1.184 0.993,1.798c0.284,0.617 0.803,1.609 0.899,2.509c0.095,0.899 -0.143,1.259 -0,2.262c0.142,1.002 0.329,1.382 0.022,2.14c-0.305,0.757 -0.258,0.708 -1.111,1.325c-0.85,0.614 -2.648,0.189 -2.98,-0c-0.332,-0.189 -2.368,-1.846 -2.461,-3.076c-0.094,-1.231 -0.947,-3.115 -0.947,-3.143c0,-0.029 -0.427,-1.211 0,-1.92m-73.535,39.417c-0.473,0.852 -1.892,2.081 -3.124,1.894c-1.23,-0.191 -2.933,-1.138 -3.974,-1.801c-1.04,-0.66 -4.258,-3.123 -4.826,-3.405c-0.568,-0.285 -0.853,-1.327 -4.26,-1.514c-3.407,-0.191 -3.594,0.093 -5.583,-0.378c-1.989,-0.474 -3.028,-0.57 -3.598,-1.516c-0.567,-0.946 -1.04,-3.312 -1.04,-3.312l1.893,-3.029c0.474,-1.135 2.178,-2.84 4.07,-3.125c1.892,-0.282 3.216,-0.378 4.828,-0.378c1.607,-0 4.447,-0.283 5.582,-0c1.138,0.285 3.312,0.853 3.975,1.135c0.663,0.285 0.661,1.422 1.703,2.368c1.042,0.946 2.177,3.123 3.122,3.88c0.949,0.758 1.327,1.515 1.516,2.365c0.19,0.853 0.378,2.651 0.378,3.691c0,1.043 -0.188,2.272 -0.662,3.125m-8.516,53.395c-0.499,0.643 -1.491,0.716 -2.273,0.432c-0.781,-0.285 -2.484,-1.489 -3.053,-1.347c-0.568,0.138 -1.349,-0.785 -1.986,-1.14c-0.641,-0.353 -2.201,-1.631 -2.486,-1.915c-0.283,-0.286 -1.277,-1.563 -1.277,-1.848c-0,-0.284 -0.496,-2.978 -0.496,-2.978c0.638,-0.924 3.761,-1.847 4.827,-1.351c1.064,0.496 2.058,0.993 2.697,1.351c0.639,0.353 2.484,0.92 2.838,1.277c0.357,0.354 0.357,1.551 0.496,2.157c0.143,0.61 0.499,2.954 0.713,3.524c0.212,0.564 0.496,1.188 -0,1.838m-14.766,-27.109c-0.353,0.496 -0.14,0.852 -1.417,0.852c-1.28,-0 -1.492,0.354 -2.698,-0c-1.207,-0.356 -1.42,-0.499 -2.629,-0.499c-1.204,0 -2.128,-0.496 -2.341,-0.567c-0.212,-0.069 -1.489,-1.207 -1.489,-1.207l0,-0.353c0.212,-0.639 0.638,-1.846 1.277,-2.273c0.639,-0.425 1.136,-1.206 2.271,-0.921c1.137,0.283 2.626,0.779 3.407,1.134c0.781,0.355 1.845,0.993 2.27,1.278c0.428,0.283 1.209,1.489 1.349,1.703c0.143,0.214 0.357,0.356 0,0.853m-25.195,18.63c-2.344,-0.248 -3.978,0 -3.978,0c0,0 -1.845,0.033 -2.483,0c-0.639,-0.032 -1.258,0.179 -2.535,-0.069c-1.068,0.049 -2.167,-0.915 -2.433,-1.384c0.181,-1.073 0.759,-1.655 2.484,-2.271c-0,-0 1.916,-0.428 2.13,-0.428c0.211,0 1.631,-0.71 2.766,0c1.138,0.712 2.486,1.193 2.486,1.193c0,-0 2.059,0.872 2.413,1.153c0.354,0.28 0.567,0.85 0.426,1.061c-0.141,0.217 1.066,0.989 -1.276,0.745m-16.895,-0.886c-0.425,-0 -2.273,0.358 -4.541,0.707c-2.272,0.358 -2.343,0.074 -3.336,0c-0.996,-0.069 -2.415,-0.707 -3.125,-1.274c-0.71,-0.569 -0.071,-1.207 1.066,-1.635c1.135,-0.423 0.779,-0.497 1.774,-1.135c0.992,-0.639 1.987,-0.708 3.336,-0.779c1.348,-0.072 1.703,0.425 2.27,0.496c0.568,0.069 1.632,0.782 1.632,0.782c0,-0 1.776,1.633 1.776,1.918c-0,-0 -0.425,0.92 -0.852,0.92m312.853,-11.884c0.378,-1.324 4.732,-9.842 4.732,-10.411c-0,-0.566 -4.543,-0.566 -6.057,-3.784c-1.513,-3.217 -2.65,-12.872 -3.218,-15.333c-0.567,-2.46 -2.838,-4.92 -3.594,-6.435c-0.757,-1.515 -0.381,-6.813 -2.084,-7.004c-1.705,-0.187 -9.085,1.894 -13.628,1.327c-4.54,-0.57 -8.705,-6.814 -7.948,-10.221c0.757,-3.408 5.678,-1.705 7.57,-0.946c1.894,0.756 4.541,3.975 6.245,4.353c1.705,0.377 7.95,0.946 9.653,-1.135c1.705,-2.083 2.462,-7.193 1.516,-7.952c-0.948,-0.757 -5.3,-3.595 -6.626,-6.624c-1.325,-3.029 2.651,-7.95 3.027,-9.464c0.38,-1.514 -2.081,-5.677 -4.919,-5.867c-2.838,-0.189 -10.221,11.167 -14.577,12.68c-4.351,1.516 -12.112,-0.378 -13.248,-0.189c-1.134,0.189 -1.702,-4.921 -1.702,-6.813c0,-1.892 1.514,-5.682 -1.513,-5.68c-3.032,0.002 -15.334,-1.701 -17.038,-1.701c-1.703,0 -2.081,-0.381 -4.543,0c-2.459,0.379 -12.491,4.92 -15.141,4.92c-2.649,-0 -4.352,-0.379 -4.352,-3.406c0,-3.03 11.921,-13.44 15.14,-16.09l-0.851,-15.774l-29.103,25.553c-0,0 -5.253,2.981 -8.233,-1.278c-2.978,-4.26 -1.418,-12.21 4.4,-15.332c5.821,-3.123 7.385,-4.968 7.385,-4.968l-3.125,-4.828c0,0 -0.14,-6.813 -1.561,-7.523c-1.422,-0.71 -5.679,-3.265 -6.53,-3.265c-0.854,0 -3.407,-1.703 -4.684,0c-1.279,1.705 -3.265,6.673 -3.549,8.235c-0.284,1.56 -1.704,8.376 -4.119,8.801c-2.411,0.425 -5.889,0.992 -7.663,0.921c-1.776,-0.069 -2.981,-0.211 -5.324,0.071c-2.342,0.285 -4.401,1.35 -5.324,1.422c-0.922,0.07 -2.557,-0.64 -3.691,-1.137c-1.135,-0.496 -1.493,-2.626 -3.336,-3.265c-1.845,-0.639 -4.827,-0.71 -6.032,-0.425c-1.208,0.283 -2.984,1.206 -3.835,0.425c-0.852,-0.781 -2.058,-1.987 -1.987,-3.832c0.071,-1.845 -0.427,-4.259 0.355,-5.82c0.78,-1.563 0.993,-4.496 0.993,-6.153c0,-1.656 0.284,-2.012 0,-2.719c-0.282,-0.71 -1.631,-3.337 -2.838,-3.408c-1.207,-0.071 -1.373,-0.427 -2.39,0.638c-1.016,1.064 -2.719,4.543 -3.928,5.253c-1.206,0.71 -1.133,1.064 -2.27,1.064c-1.136,0 -5.322,-0.781 -7.027,-0.567c-1.705,0.213 -2.484,0.354 -3.481,0.213c-0.991,-0.142 -3.049,-0.923 -3.12,-1.633c-0.07,-0.71 -0.995,-2.484 -1.067,-4.472c-0.069,-1.987 0.214,-4.189 0.499,-5.464c0.283,-1.277 0.212,-3.125 0.639,-3.478c0.425,-0.356 4.046,-0.499 5.608,-0c1.561,0.496 3.619,1.633 4.541,1.489c0.924,-0.141 2.769,-1.811 2.769,-1.811c-0,-0 -0.567,-2.162 -0.213,-2.873c0.353,-0.71 1.562,-1.987 1.348,-2.84c-0.213,-0.85 -0.283,-2.483 -1.632,-2.483c-1.348,-0 -3.55,-0.143 -4.827,-0.71c-1.277,-0.568 -2.057,-4.259 -2.448,-5.111c-0.39,-0.852 -1.206,-1.987 -1.527,-2.059c-0.319,-0.071 -1.064,0.32 -1.278,0.675c-0.212,0.355 -0.781,2.057 -0.958,2.414c-0.177,0.353 -1.312,1.987 -1.599,2.449c-0.283,0.461 -1.31,1.703 -1.737,2.093c-0.425,0.391 -1.386,0.924 -2.023,1.206c-0.638,0.286 -0.176,0.391 -1.882,0.568c-1.702,0.177 -3.937,0.533 -6.065,0.249c-2.132,-0.284 -3.017,-0.568 -3.978,-0.497c-0.958,0.071 -1.562,0.391 -1.985,0.676c-0.428,0.282 -1.246,1.206 -1.492,1.844c-0.247,0.639 -0.994,2.129 -1.171,2.237c-0.177,0.105 -1.632,-0.143 -2.84,0.318c-1.206,0.463 -1.703,1.313 -1.703,1.667c-0,0.356 -1.337,4.52 1.646,7.69c2.98,3.171 8.801,4.638 9.321,5.537c0.519,0.899 1.231,2.081 1.276,2.46c0.049,0.378 0.994,3.975 0.144,4.757c-0.852,0.781 -4.473,3.974 -4.968,4.896c-0.498,0.923 -2.84,2.13 -3.409,3.621c-0.568,1.491 -2.627,5.392 -3.335,6.742c-0.709,1.349 -3.478,5.326 -3.904,6.176c-0.426,0.853 -1.208,2.484 -2.129,2.484c-0.925,0 -3.337,-6.885 -3.337,-6.885c0,0 -3.194,-4.117 -3.194,-5.252c-0,-1.137 0.14,-7.312 -0,-10.007c-0.142,-2.7 -1.137,-7.881 -1.634,-9.016c-0.496,-1.135 -1.631,-3.55 -1.56,-5.465c0.071,-1.916 0.782,-3.479 1.206,-4.614c0.428,-1.136 1.917,-8.375 -1.704,-9.441c-3.619,-1.064 -5.182,4.899 -5.182,4.899c0,-0 -1.773,5.963 -2.484,6.388c-0.709,0.425 -3.476,0.356 -4.471,0.425c-0.993,0.071 -2.768,0.427 -4.046,0.924c-1.278,0.496 -2.271,1.064 -2.981,1.702c-0.71,0.641 -3.69,3.265 -3.903,3.408l-0.214,0.143c-0,-0 -1.489,1.844 -2.271,2.27c-0.781,0.425 -1.916,0.142 -3.265,-0.143c-1.348,-0.283 -8.8,-3.548 -9.275,-3.737c-0.471,-0.189 -2.84,-0.473 -3.028,0.094c-0.188,0.567 3.028,3.786 3.596,4.544c0.57,0.758 6.627,7.853 7.289,8.705c0.661,0.853 1.986,3.312 2.649,3.882c0.663,0.567 1.609,1.325 1.988,1.796c0.378,0.474 0.096,1.325 -0.096,2.084c-0.187,0.757 -1.324,1.041 -2.081,2.08c-0.758,1.042 -1.988,1.421 -2.367,2.651c-0.378,1.231 -1.609,3.88 -1.323,4.921c0.284,1.042 -0.096,3.786 -0.379,5.585c-0.285,1.798 0.661,2.364 -1.99,2.364c-2.649,-0 -6.166,-0.283 -7.293,-0.283l-7.657,0c-2.177,0 -4.921,0.379 -6.152,-0.283c-1.231,-0.663 -1.798,-1.135 -2.462,-2.84c-0.661,-1.702 -2.176,-3.879 -2.648,-5.678c-0.474,-1.798 -0.568,-4.071 -0.568,-4.071l-1.326,-2.837c-0,-0 -2.082,-1.514 -3.027,-1.514c-0.946,0 -2.557,0.283 -2.936,0.283c-0.378,0 -3.595,-0.568 -3.595,-0.568c0,0 -0.189,0.568 -1.232,0.947c-1.04,0.378 -1.797,2.65 -1.797,3.311c-0,0.663 1.04,3.219 1.894,4.26c0.851,1.042 4.73,6.437 5.204,6.909c0.472,0.474 1.798,3.122 3.407,5.204c1.609,2.083 2.556,5.395 2.934,6.152c0.378,0.756 1.703,4.825 1.939,5.299c0.238,0.474 0.189,1.989 0.428,3.169c0.235,1.185 0.139,3.408 0.284,4.118c0.141,0.71 0.047,2.366 0.094,2.747c0.047,0.378 -0.239,1.371 -0.332,2.316c-0.094,0.947 -0.046,1.421 -0.285,1.895c-0.236,0.472 -0.803,1.229 -1.228,1.229c-0.426,-0 -1.846,-1.656 -1.846,-1.656c-0,-0 -1.515,-0.9 -1.894,-1.799c-0.378,-0.897 -1.656,-2.697 -1.656,-2.697l-0.85,-2.271l-1.562,-0.995c-0,0 -0.758,-0.093 -1.278,-0.093c-0.521,-0 -1.373,0.096 -2.082,0.614c-0.709,0.521 -0.947,0.474 -1.704,1.28c-0.757,0.804 -2.317,2.177 -2.317,2.177l-0.238,0.189c0,0 -0.757,0.567 -1.324,0.518c-0.567,-0.046 -2.177,-0.614 -2.177,-0.614c-0,-0 -1.09,-0.379 -1.421,-1.466c-0.331,-1.089 -1.37,-1.752 -1.655,-2.652c-0.283,-0.899 -2.698,-7.216 -3.051,-8.564c-0.357,-1.349 -0.642,-3.052 -0.642,-4.258c0,-1.206 -1.348,-2.341 -1.277,-3.833c0.071,-1.491 -0.354,-5.68 -0.638,-6.176c-0.284,-0.497 -0.78,-0.922 -1.207,-1.135c-0.425,-0.212 -1.278,-0.781 -1.418,-0.212c-0.145,0.568 -0.995,3.974 -0.852,5.323c0.14,1.348 -0.924,3.406 -1.067,4.685c-0.14,1.277 -0.282,1.773 -0.496,3.547c-0.212,1.776 -0.71,2.272 -0.852,3.125c-0.141,0.85 -0.355,1.845 -0.922,2.838c-0.567,0.994 -0.923,1.775 -1.206,2.201c-0.285,0.425 -0,0.212 -1.209,0.638c-1.206,0.426 -2.838,0.709 -3.477,0.782c-0.638,0.071 -2.625,0.071 -3.689,0.071c-1.067,-0 -1.563,0.568 -1.563,0.568l1.563,1.703l2.766,2.058c-0,0 1.916,0.993 3.336,2.342c1.421,1.348 3.55,2.627 4.968,3.692c1.42,1.064 1.919,2.128 4.047,2.482c2.13,0.356 5.252,-0.212 6.886,0.568c1.632,0.781 2.624,0.854 3.69,1.776c1.064,0.923 2.698,1.562 3.123,3.051c0.425,1.492 0.924,2.342 1.207,3.407c0.284,1.067 0.64,1.918 0.851,3.195c0.213,1.278 0,2.412 -0.07,3.621c-0.071,1.206 -0.355,1.703 -1.064,2.342c-0.71,0.638 -2.983,1.489 -4.258,0.071c-1.28,-1.42 -4.828,-6.533 -6.53,-7.311c-1.705,-0.782 -1.99,-1.065 -3.622,-1.065c-1.631,-0 -2.769,0.143 -4.898,0.283c-2.128,0.143 -2.767,0.639 -3.337,0c-0.565,-0.639 -2.909,-4.613 -4.614,-5.11c-1.701,-0.496 -4.258,-0.708 -5.818,-0.993c-1.562,-0.285 -2.697,-0.781 -2.98,0.14c-0.285,0.924 -0.83,1.799 -0.83,2.462c-0,0.661 -0.283,2.365 -0,3.501c0.284,1.137 -0.126,2.84 -0.126,2.84c-0,0 -0.727,0.852 -1.577,1.231c-0.85,0.378 -3.217,0.282 -3.405,0.852c-0.19,0.565 -0,2.367 -0,2.744c-0,0.378 0.207,1.325 -0.086,1.893c-0.293,0.567 -1.052,1.041 -0.956,2.744c0.094,1.704 0.285,3.312 0.756,4.068c0.474,0.757 0.853,1.612 1.892,2.934c1.042,1.326 3.315,3.882 3.315,3.882c-0,-0 2.459,1.417 3.026,1.417c0.568,0 3.88,-1.417 3.88,-1.417c0,-0 3.314,-1.327 4.353,-2.273c1.042,-0.946 4.828,-3.31 6.627,-3.501c1.796,-0.188 2.366,-0.565 3.596,-0.472c1.231,0.093 3.501,0.565 4.73,1.514c1.231,0.943 3.408,2.365 3.503,2.649c0.093,0.284 1.799,2.557 1.799,3.974c-0,1.418 -0.379,1.989 -0.664,1.989c-0.284,-0 -5.016,1.797 -6.34,1.797c-1.325,0 -2.838,0.568 -3.785,0.853c-0.947,0.285 -5.016,1.892 -6.058,2.27c-1.039,0.378 -4.638,1.136 -6.056,1.231c-1.42,0.093 -4.638,0.853 -8.424,0.663c-3.784,-0.189 -7.003,-0.378 -10.222,-0.474c-3.218,-0.096 -10.316,0.285 -11.544,-0.096c-1.231,-0.378 -3.501,-2.648 -3.786,-2.931c-0.285,-0.285 -3.692,-4.641 -4.071,-5.112c-0.376,-0.472 -2.931,-3.595 -2.931,-3.595l-0.948,-0.474l-0.379,1.988l1.988,6.908l0.758,3.029l-0.569,1.608c-0,-0 -0.756,2.461 -0.946,3.218c-0.189,0.759 -0.285,1.42 -1.231,1.798c-0.946,0.379 -2.081,1.325 -3.216,1.514c-1.135,0.189 -3.313,0.568 -3.975,0.852c-0.663,0.285 -1.515,1.514 -1.326,2.177c0.189,0.663 0.473,1.987 1.135,2.838c0.663,0.852 3.41,2.272 3.41,2.272c-0,0 1.135,1.231 1.228,1.703c0.095,0.472 -0.283,5.869 -0.283,6.909c0,1.039 0.851,2.837 1.04,4.261c0.189,1.417 -0.472,2.837 -0.472,2.837c0,-0 -0.852,0.378 -1.703,0.663c-0.855,0.285 -2.557,0.378 -2.651,0.943c-0.095,0.571 -0.948,1.519 -0.948,1.519c0,-0 -2.363,1.228 -2.459,2.079c-0.095,0.853 -0.189,2.839 -0,3.787c0.189,0.948 1.23,2.364 1.23,3.308c0,0.952 0.662,2.274 1.514,3.507c0.853,1.229 1.797,2.173 2.838,1.986l1.043,-0.187l2.745,-2.181c0,-0 1.607,-3.878 1.892,-4.541c0.283,-0.659 2.083,-4.826 2.177,-5.11c0.095,-0.285 0.663,-1.766 1.418,-1.4c0.756,0.358 6.154,0.928 9.37,1.022c3.218,0.093 8.233,0.093 9.749,0.378c1.513,0.284 2.648,1.041 2.648,1.326c0,0.286 0.286,2.27 0.096,3.5c-0.189,1.229 -0.285,2.746 -0.096,4.068c0.189,1.326 -0.471,2.653 0.286,2.938c0.755,0.281 2.365,-0.476 2.839,-0.949c0.472,-0.471 6.529,-4.825 8.42,-5.773c1.895,-0.944 7.857,-2.555 9.94,-3.124c2.081,-0.566 2.745,-1.416 4.448,-1.702c1.702,-0.284 4.636,-0.662 5.016,-0.662c0.378,-0 3.596,-0.473 3.975,-0.473c0.378,0 0.283,-0.724 1.89,-0.549c1.611,0.171 3.786,-0.366 4.26,0c0.474,0.358 1.609,1.497 2.177,1.97c0.567,0.471 3.122,4.117 3.265,4.727c0.142,0.619 0.331,0.334 0.71,2.23c0.378,1.888 0.285,2.27 0.474,2.93c0.189,0.663 -0.143,2.034 -0.096,2.746c0.047,0.708 0.852,4.589 0.852,4.92c0,0.333 0.094,0.804 0.332,1.374c0.236,0.566 0.519,1.652 0.851,2.222c0.331,0.569 0.616,1.42 1.419,1.941c0.804,0.52 0.475,1.135 2.271,1.842c1.799,0.712 3.029,0.241 4.356,0.383c1.323,0.138 2.601,-0.285 3.5,-0.383c0.9,-0.089 1.04,-0.329 2.367,-1.037c1.324,-0.712 2.128,-1.469 2.554,-1.798c0.426,-0.329 1.183,-1.278 1.893,-1.608c0.709,-0.333 2.129,-1.041 2.746,-1.188c0.612,-0.138 1.797,0.192 2.317,0.192c0.521,-0 2.035,0.569 2.224,0.663c0.189,0.093 1.655,0.948 2.13,1.277c0.471,0.335 1.893,1.563 2.272,1.893c0.378,0.333 2.885,3.881 3.737,4.638c0.853,0.757 1.798,2.176 2.271,2.747c0.474,0.565 1.326,1.749 2.177,2.692c0.852,0.949 1.658,2.368 1.987,2.747c0.332,0.378 0.569,0.614 1.516,1.42c0.945,0.806 1.324,1.701 2.459,1.986c1.135,0.285 3.786,0.711 3.929,0.756c0.142,0.049 1.797,0.334 1.938,0.432c0.142,0.089 1.42,0.797 1.894,1.082c0.472,0.285 1.56,1.424 1.894,2.181c0.33,0.757 2.175,3.076 2.175,3.076l2.177,1.135l2.176,0.094c-0,-0 2.319,0.187 2.887,0.235c0.568,0.049 3.786,0.66 4.543,1.042c0.756,0.378 2.461,1.831 3.314,2.148c0.85,0.31 2.742,1.351 3.025,1.921c0.286,0.569 0.759,1.42 1.611,2.368c0.851,0.944 1.892,2.364 2.27,2.933c0.378,0.566 0.758,1.042 1.609,2.079c0.853,1.042 1.514,2.369 1.894,2.654c0.379,0.28 0.946,1.415 1.325,1.985c0.378,0.569 0.567,0.854 0.567,1.611l-0,1.888c-0,-0 -0.047,5.964 -0.235,6.486c-0.19,0.52 -0.332,1.846 -0.19,2.506c0.141,0.667 -0.284,1.945 -0.189,2.652c0.093,0.708 -0.285,1.937 -0.238,2.743c0.049,0.806 -0.047,3.267 -0.047,3.267c0,-0 0.285,4.114 0.426,4.472c0.142,0.357 0.64,0.195 1.633,0.879c0.992,0.683 5.678,1.391 6.174,1.533c0.497,0.143 1.917,0.143 2.487,0.216c0.567,0.065 1.631,-0.924 1.631,-0.924c-0,0 -0,-3.551 0.283,-4.048c0.285,-0.496 0.213,-2.413 0.427,-4.187c0.212,-1.778 0.567,-3.975 0.567,-3.975l0.781,-2.059l0.637,-2.693l0.995,-0.358l1.563,0.57l1.488,0.776c0,0 0.853,0.501 1.138,0.786c0.283,0.28 0.142,0.492 0.354,1.343c0.213,0.854 0.142,2.27 0.213,3.055c0.071,0.777 -0.284,1.563 -0.071,2.128c0.214,0.57 0.142,1.848 0.214,2.059c0.069,0.211 0.069,0.781 0.069,2.132c-0,1.346 -0,3.035 0.144,3.646c0.141,0.609 0.283,2.099 0.495,2.457c0.214,0.354 0.64,1.066 0.64,1.066c0,-0 1.419,-0 2.838,0.565c1.421,0.566 4.118,0.566 4.401,0.639c0.284,0.074 2.557,0.391 3.692,0.444c1.135,0.053 5.157,1.2 5.157,1.2l3.267,0.358c0,0 2.767,0.464 3.05,0.566c0.285,0.101 1.95,-0.317 1.95,-0.317l13.691,-41.176c-0,-0 9.65,-15.335 24.602,-20.254c14.955,-4.919 34.072,-7.76 71.173,-0l6.621,-3.597l-3.973,-3.219c0,0 -4.162,-6.624 0.758,-8.324c4.92,-1.709 10.6,-1.518 10.6,-1.518l1.133,-1.322l-2.838,-2.652c0,-0 -3.975,-5.298 0.757,-7.759c4.732,-2.462 6.624,-3.032 9.464,-3.406c2.838,-0.383 19.306,-9.09 19.686,-10.412c0.377,-1.322 -5.112,-1.705 -6.437,-2.649c-1.324,-0.947 -4.92,-5.297 0.757,-5.49c5.68,-0.19 15.331,-0.758 17.793,-2.838c2.46,-2.084 -0.379,-6.435 0,-7.762" style="fill:#ab6c10;fill-rule:nonzero;"></path><path d="M491.776,389.946l-14.48,5.964c-0,0 -1.705,-2.274 -12.493,-5.964c-10.79,-3.691 -15.9,-3.406 -15.9,-3.406c-0,-0 -4.259,-6.123 -10.504,-6.123c-6.248,-0 -24.701,17.479 -36.91,18.049c-12.207,0.569 -23,-6.82 -32.083,-5.111c-9.086,1.701 -26.785,10.461 -36.627,24.982c0,-0 33.453,4.781 38.897,4.26c5.449,-0.521 6.805,-10.79 30.658,-7.95c23.854,2.84 38.62,4.259 50.546,3.12c11.923,-1.131 25.266,-1.415 25.266,-1.415l13.63,-26.406Z" style="fill:#009946;fill-rule:nonzero;"></path><path d="M334.783,417.475c6.65,0.927 29.356,4.027 35.837,4.027c0.391,0 0.709,-0.016 0.951,-0.036c1.269,-0.122 2.343,-0.981 3.83,-2.177c3.121,-2.498 7.837,-6.274 19.212,-6.274c2.407,0 5.052,0.171 7.857,0.505c19.109,2.274 31.38,3.507 41.473,3.507c3.206,-0 6.093,-0.13 8.829,-0.391c10.307,-0.976 21.802,-1.33 24.675,-1.404l11.9,-23.057l-12.434,5.119l-0.526,-0.708c-0.005,0 -1.974,-2.152 -11.953,-5.566c-9.323,-3.19 -14.345,-3.353 -15.259,-3.353c-0.126,0 -0.198,0.008 -0.212,0.008l-0.63,0.029l-0.362,-0.517c-0.037,-0.056 -4.01,-5.635 -9.572,-5.635c-2.327,-0 -7.31,3.242 -12.584,6.677c-7.949,5.167 -16.959,11.026 -24.273,11.367c-6.204,0.294 -11.9,-1.367 -17.369,-2.962c-4.239,-1.236 -8.241,-2.4 -11.881,-2.4c-0.953,0 -1.829,0.073 -2.677,0.236c-8.841,1.656 -25.142,9.838 -34.832,23.005m35.837,6.298c-7.744,-0 -36.769,-4.134 -38,-4.314l-1.798,-0.251l1.019,-1.505c9.883,-14.587 27.796,-23.672 37.357,-25.467c0.975,-0.183 2.014,-0.273 3.094,-0.273c3.964,0 8.117,1.209 12.518,2.491c5.293,1.542 10.784,3.149 16.627,2.872c6.699,-0.309 15.81,-6.237 23.136,-11.002c6.048,-3.938 10.825,-7.042 13.826,-7.042c5.747,-0 9.853,4.581 11.069,6.123c1.725,0.032 6.852,0.439 15.701,3.467c7.94,2.717 11.142,4.727 12.363,5.712l16.671,-6.868l-15.359,29.754l-0.673,0.017c-0.133,0.004 -13.439,0.296 -25.185,1.412c-2.807,0.268 -5.766,0.399 -9.043,0.399c-10.208,-0 -22.545,-1.238 -41.741,-3.524c-2.718,-0.325 -5.271,-0.489 -7.589,-0.489c-10.576,0 -14.749,3.341 -17.792,5.778c-1.658,1.33 -3.092,2.477 -5.035,2.661c-0.316,0.033 -0.698,0.049 -1.166,0.049" style="fill:#622d50;fill-rule:nonzero;"></path><path d="M123.654,388.961c-0,-0 26.996,1.872 54.995,-27.029c-0,0 72.066,40.154 101.735,42.929c0,0 -29.237,20.979 -78.558,24.869c-49.321,3.889 -54.81,2.579 -54.81,2.579l-23.362,-43.348Z" style="fill:#009946;fill-rule:nonzero;"></path><path d="M178.236,361.082c-24.5,25.307 -45.936,27.114 -51.561,27.114c-0.938,-0 -5.483,0.008 -5.483,0.008l25.784,44.203c-0,-0 2.695,0.48 9.142,0.48c6.766,0 19.991,-0.496 45.777,-2.531c50.348,-3.97 82.58,-24.282 82.58,-24.282c-38.235,-6.908 -106.239,-44.992 -106.239,-44.992m0.411,2.824c10.234,5.631 66.544,36.134 97.071,42.355c-3.55,2.068 -8.911,4.915 -15.887,7.877c-12.366,5.249 -32.488,11.93 -58.115,13.955c-26.436,2.084 -39.389,2.528 -45.598,2.528c-3.104,-0 -4.732,-0.11 -7.93,-0.289l-23.09,-40.13c10.557,-0.46 31.598,-4.207 53.549,-26.296" style="fill:#622d50;fill-rule:nonzero;"></path><path d="M307.37,107.079c-110.443,-0 -200.292,89.853 -200.292,200.296c0,110.441 89.849,200.291 200.292,200.291c110.444,-0 200.295,-89.85 200.295,-200.291c-0,-110.443 -89.851,-200.296 -200.295,-200.296m0,407.967c-28.033,0 -55.231,-5.489 -80.837,-16.319c-24.729,-10.461 -46.941,-25.434 -66.011,-44.504c-19.071,-19.074 -34.044,-41.281 -44.505,-66.011c-10.831,-25.608 -16.32,-52.803 -16.32,-80.837c0,-28.037 5.489,-55.234 16.32,-80.841c10.461,-24.729 25.434,-46.939 44.505,-66.01c19.07,-19.071 41.282,-34.046 66.011,-44.505c25.606,-10.83 52.804,-16.321 80.837,-16.321c28.033,0 55.231,5.491 80.837,16.321c24.73,10.459 46.941,25.434 66.013,44.505c19.07,19.071 34.043,41.281 44.506,66.01c10.828,25.607 16.321,52.804 16.321,80.841c0,28.034 -5.493,55.229 -16.321,80.837c-10.463,24.73 -25.436,46.937 -44.506,66.011c-19.072,19.07 -41.283,34.043 -66.013,44.504c-25.606,10.83 -52.804,16.319 -80.837,16.319" style="fill:#622d50;fill-rule:nonzero;"></path><path d="M307.37,7.383c-165.416,0 -299.988,134.575 -299.988,299.992c0,165.41 134.572,299.987 299.988,299.987c165.413,-0 299.988,-134.577 299.988,-299.987c0,-165.417 -134.575,-299.992 -299.988,-299.992m0,607.359c-41.492,-0 -81.746,-8.126 -119.644,-24.152c-36.602,-15.485 -69.471,-37.644 -97.7,-65.872c-28.227,-28.229 -50.389,-61.1 -65.87,-97.698c-16.029,-37.901 -24.156,-78.152 -24.156,-119.645c0,-41.497 8.127,-81.748 24.156,-119.646c15.481,-36.602 37.643,-69.474 65.87,-97.702c28.229,-28.227 61.098,-50.389 97.7,-65.871c37.898,-16.028 78.152,-24.156 119.644,-24.156c41.496,-0 81.747,8.128 119.645,24.156c36.6,15.482 69.473,37.644 97.702,65.871c28.224,28.228 50.388,61.1 65.868,97.702c16.029,37.898 24.156,78.149 24.156,119.646c-0,41.493 -8.127,81.744 -24.156,119.645c-15.48,36.598 -37.644,69.469 -65.868,97.698c-28.229,28.228 -61.102,50.387 -97.702,65.872c-37.898,16.026 -78.149,24.152 -119.645,24.152" style="fill:#622d50;fill-rule:nonzero;"></path><path d="M65.959,274.26c-4.229,0.391 -8.753,0.205 -13.573,-0.545c-6.38,-1.003 -11.582,-2.472 -15.605,-4.403c-3.768,-1.822 -7.031,-4.209 -9.789,-7.157c1.069,2.326 2.422,4.59 4.062,6.802c1.483,1.991 2.958,3.671 4.422,5.042c4.322,4.027 9.386,6.495 15.197,7.406c7.572,1.184 15.009,-0.777 22.312,-5.877c2.308,-1.596 4.196,-3.3 5.66,-5.121c-2.728,1.332 -4.89,2.236 -6.482,2.707c-1.743,0.562 -3.811,0.943 -6.204,1.146" style="fill:#622d50;fill-rule:nonzero;"></path><path d="M93.144,241.055c-1.305,-2.15 -2.364,-4.368 -3.175,-6.662c-0.157,1.589 -0.258,2.597 -0.309,3.031c-0.139,1.259 -0.344,2.669 -0.619,4.225c-0.128,0.58 -0.236,1.217 -0.322,1.919l-0.729,2.642c-1.024,3.671 -2.57,6.956 -4.639,9.851c-2.775,3.89 -5.639,5.441 -8.589,4.652c-2.018,-0.541 -3.282,-2.184 -3.786,-4.933c-0.386,-2.236 -0.258,-4.5 0.376,-6.793l2.389,-8.593l-7.365,-5.084l-3.973,14.314c-1.046,1.035 -1.918,1.821 -2.61,2.358l-2.402,1.417l-0.611,0.281c-2.211,-2.819 -2.876,-5.818 -1.989,-9.012c0.608,-2.191 1.586,-3.979 2.941,-5.358l1.287,-1.298c-2.401,0.081 -4.603,0.671 -6.598,1.766c-2.354,1.302 -3.833,3.043 -4.439,5.234c-0.451,1.625 -0.269,3.442 0.545,5.459c0.676,1.7 1.792,3.38 3.358,5.041c1.698,1.824 3.315,2.945 4.861,3.356c1.851,0.497 4.296,-0.313 7.333,-2.429c3.119,5.394 7.068,8.729 11.84,10.005c4.607,1.235 8.535,0.562 11.772,-2.023c2.951,-2.322 5.118,-5.978 6.504,-10.966c0.65,-2.327 1.053,-4.647 1.22,-6.958c0.039,-0.527 0.028,-0.944 -0.02,-1.257c-0.833,-1.705 -1.581,-3.102 -2.251,-4.185" style="fill:#622d50;fill-rule:nonzero;"></path><path d="M84.104,223.466l-1.867,-5.191l-6.365,3.255l1.889,5.285l6.343,-3.349Z" style="fill:#622d50;fill-rule:nonzero;"></path><path d="M111.775,188.945c-0.486,1.524 -0.797,2.493 -0.938,2.905c-0.394,1.203 -0.889,2.543 -1.481,4.014c-0.242,0.541 -0.478,1.146 -0.714,1.81l-1.263,2.438c-1.764,3.393 -3.959,6.303 -6.589,8.718c-3.522,3.254 -6.649,4.202 -9.372,2.837c-1.864,-0.932 -2.757,-2.795 -2.684,-5.586c0.089,-2.269 0.683,-4.457 1.786,-6.575l4.12,-7.936l-6.156,-6.451l-6.864,13.211c-1.237,0.814 -2.252,1.404 -3.046,1.79l-2.644,0.91l-0.653,0.152c-1.583,-3.202 -1.61,-6.274 -0.078,-9.222c1.05,-2.024 2.383,-3.578 3.992,-4.656l1.526,-1.014c-2.367,-0.4 -4.641,-0.265 -6.823,0.411c-2.572,0.798 -4.382,2.212 -5.432,4.234c-0.78,1.499 -0.977,3.315 -0.6,5.454c0.306,1.801 1.053,3.668 2.24,5.604c1.284,2.13 2.634,3.548 4.058,4.261c1.713,0.856 4.275,0.551 7.69,-0.911c1.931,5.905 5.102,9.959 9.512,12.167c4.254,2.13 8.236,2.254 11.94,0.374c3.375,-1.684 6.258,-4.826 8.648,-9.43c1.117,-2.154 1.996,-4.343 2.639,-6.57c0.148,-0.507 0.229,-0.917 0.24,-1.235c-0.456,-1.835 -0.904,-3.353 -1.33,-4.551c-0.837,-2.362 -1.408,-4.748 -1.724,-7.153" style="fill:#622d50;fill-rule:nonzero;"></path><path d="M108.3,177.17l-0.73,-5.462l-6.914,1.89l0.729,5.556l6.915,-1.984Z" style="fill:#622d50;fill-rule:nonzero;"></path><path d="M112.206,156.632l-1.096,-2.517c-0.995,-2.295 -1.178,-3.833 -0.545,-4.622c0.595,-0.743 1.778,-1.284 3.545,-1.611c1.769,-0.33 3.535,-0.407 5.298,-0.228l-7.202,8.978Zm12.508,15.328l-9.149,-6.075l11.728,-14.633l-0.362,-0.72l-1.662,-2.823l-1.526,-2.714c-0.408,-0.543 -0.833,-0.983 -1.271,-1.324c-0.578,-0.446 -1.217,-0.782 -1.922,-1.007c-1.05,-0.284 -2.786,-0.411 -5.215,-0.377c-5.584,0.057 -9.199,1.109 -10.843,3.164c-0.881,1.094 -1.178,2.18 -0.899,3.261l1.099,2.559l1.169,2.509l3.373,6.564l-0.437,0.381c-0.439,0.547 0.008,2.121 1.343,4.719c2.144,4.234 3.755,6.762 4.823,7.588l1.444,0.91l3.385,1.933l4.417,2.626l3.949,2.201l1.243,0.753l-2.342,-5.292c-1.068,-2.42 -1.851,-3.82 -2.345,-4.203" style="fill:#622d50;fill-rule:nonzero;"></path><path d="M128.489,143.961l7.165,-0.732l0.281,-5.498l-7.147,0.634l-0.299,5.596Z" style="fill:#622d50;fill-rule:nonzero;"></path><path d="M179.663,100.217c-0.612,-2.045 -0.972,-3.195 -1.077,-3.45c-0.424,-1.068 -1.032,-2.106 -1.817,-3.111c-1.969,-2.515 -4.663,-4.103 -8.077,-4.768l-0.067,8.324c1.786,0.167 3.67,0.944 5.654,2.331l-5.157,3.894l-11.834,-5.566l-0.348,6.862l6.288,3.147l-7.366,5.56c-2.923,-2.152 -5.761,-3.631 -8.508,-4.443l-0.651,7.535c4.238,1.158 7.863,2.999 10.877,5.53c-0.175,1.33 -0.62,2.742 -1.342,4.229c-1.318,2.805 -2.944,4.937 -4.878,6.4c-4.35,3.278 -8.473,2.423 -12.381,-2.561c-0.549,-0.706 -1.655,-2.541 -3.32,-5.521l-0.538,-0.948c0.168,1.475 0.586,3.271 1.262,5.395c1.236,3.929 2.603,6.846 4.095,8.752c2.03,2.593 4.515,3.991 7.454,4.194c2.938,0.202 5.484,-0.506 7.639,-2.129c3.521,-2.661 6.268,-6.638 8.233,-11.932l-0.204,-0.922c-0.671,-2.646 -1.377,-4.811 -2.114,-6.485l-0.288,-0.633l-0.003,-0.002l7.37,-5.56l0.202,-3.787l2.851,1.482l9.317,-7.03c-0.238,-1.148 -0.366,-1.766 -0.389,-1.854c-0.355,-1.31 -0.65,-2.288 -0.883,-2.933" style="fill:#622d50;fill-rule:nonzero;"></path><path d="M148.123,82.998l-7.582,-0.216l-1.152,5.574l7.686,0.169l1.048,-5.527Z" style="fill:#622d50;fill-rule:nonzero;"></path><path d="M143.843,96.462l7.488,0.407l0.84,-3.725l4.099,-0l1.358,-5.666l-7.627,-0.277l-0.892,3.924l-4.178,-0.097l-1.088,5.434Z" style="fill:#622d50;fill-rule:nonzero;"></path><path d="M175.67,65.047c-2.827,-0.893 -5.344,-1.344 -7.551,-1.353c1.729,0.841 2.978,1.485 3.755,1.935c2.502,1.438 4.835,3.344 6.996,5.716c2.863,3.105 5.424,6.763 7.686,10.968c3.053,5.682 4.975,10.64 5.767,14.872c0.735,4.053 0.759,8.061 0.067,12.024c1.25,-2.232 2.283,-4.663 3.095,-7.294c0.752,-2.388 1.239,-4.554 1.45,-6.497c0.712,-5.764 -0.315,-11.221 -3.084,-16.377c-3.601,-6.699 -9.661,-11.364 -18.181,-13.994" style="fill:#622d50;fill-rule:nonzero;"></path><path d="M226.625,64.671l-6.97,-3.013l-3.172,4.76l7.067,2.956l3.075,-4.703Z" style="fill:#622d50;fill-rule:nonzero;"></path><path d="M253.086,85.454l-3.839,-1.594l-3.097,4.633l6.836,3.125l2.189,-3.154l3.78,1.498l3.391,-4.789l-6.972,-3.011l-2.288,3.292Z" style="fill:#622d50;fill-rule:nonzero;"></path><path d="M276.711,63.56l1.233,-1.654c0.414,-0.594 0.87,-1.139 1.371,-1.629c0.498,-0.495 0.886,-0.825 1.164,-0.983c0.035,-0.004 0.117,-0.047 0.247,-0.126c0.13,-0.08 0.322,-0.133 0.578,-0.159c1.518,-0.149 2.827,0.745 3.922,2.685c0.871,1.544 1.388,3.127 1.553,4.755l-10.068,-2.889Zm14.204,-3.957c-0.841,-1.629 -1.695,-3.001 -2.558,-4.127c-2.101,-2.643 -4.229,-3.862 -6.388,-3.652c-1.593,0.157 -3.479,1.7 -5.653,4.63c-1.371,1.979 -2.551,3.706 -3.536,5.177l-2.573,3.876l-0.448,0.75l-6.153,0.6l-0.308,-1.071l-6.681,1.852c-0.86,0.237 -1.43,0.361 -1.711,0.369c-0.642,0.008 -1.22,-0.881 -1.733,-2.663l-3.123,-10.841l-5.078,8.695l0.881,3.058l-8.835,2.449l-0.108,-0.178c-0.757,-0.916 -1.912,-2.036 -3.469,-3.358l-3.464,6.897c1.496,0.921 2.995,2.263 4.496,4.032c1.506,1.77 2.624,3.478 3.365,5.126c-2.713,3.913 -5.879,6.368 -9.488,7.372c-2.669,0.741 -4.923,0.529 -6.771,-0.624c-1.713,-1.082 -2.925,-2.864 -3.637,-5.338c-0.615,-2.132 -1.086,-4.864 -1.42,-8.19c-1.216,6.565 -1.304,11.653 -0.264,15.265c0.795,2.763 2.455,4.846 4.98,6.244c2.521,1.397 5.292,1.678 8.308,0.844c4.224,-1.171 8.335,-3.987 12.334,-8.444c0.196,-2.537 0.258,-5.074 0.189,-7.623c-0.054,-1.511 -0.248,-2.836 -0.577,-3.978l-0.171,-0.604l5.492,-1.521l0.747,-2.446l0.515,1.782c0.47,1.638 0.964,2.672 1.485,3.101c0.665,0.596 1.812,0.667 3.44,0.214l8.817,-2.446l0.055,0.547l8.076,-0.789l1.992,-3.641l16.155,4.654c0.86,-1.641 1.45,-2.839 1.778,-3.594c1.908,-4.096 2.799,-6.757 2.675,-7.987c-0.11,-1.079 -0.655,-2.549 -1.633,-4.419" style="fill:#622d50;fill-rule:nonzero;"></path><path d="M305.965,33.321l1.394,-3.67c-1.246,0.358 -2.271,0.535 -3.095,0.525c-2.568,-0.014 -4.596,-0.716 -6.079,-2.095c1.011,-0.91 2.297,-1.359 3.863,-1.349c1.076,0.006 2.031,0.206 2.865,0.596l0.886,-1.597l0.308,-0.596c0.258,-0.582 0.389,-0.889 0.39,-0.925c0.004,-0.717 -0.889,-1.079 -2.671,-1.093c-1.458,-0.008 -2.701,0.264 -3.725,0.82c-0.858,0.515 -1.786,1.448 -2.78,2.813c-0.993,1.359 -1.493,2.466 -1.502,3.317c-0.012,1.602 0.858,2.585 2.602,2.947c-1.21,1.192 -1.935,2.71 -2.167,4.543c1.471,-1.594 3.239,-2.739 5.3,-3.445c1.044,-0.371 2.511,-0.636 4.411,-0.791" style="fill:#622d50;fill-rule:nonzero;"></path><path d="M325.82,49.741l3.037,2.789l4.946,-3.245l-5.418,-5.356l-3.391,2.282l-2.918,-2.903l-4.638,3.246l5.196,5.363l3.186,-2.176Z" style="fill:#622d50;fill-rule:nonzero;"></path><path d="M379.83,52.617l-1.072,-0.885c-0.35,-0.293 -0.602,-0.683 -0.759,-1.172c-0.156,-0.488 -0.116,-1.141 0.132,-1.959l-4.133,3.243l-0.896,0.708c-0.563,0.415 -0.899,0.812 -1.017,1.194c-0.219,0.757 0.098,1.42 0.971,2.004l0.315,0.191l-3.77,18.199l-8.77,-2.528l0.039,-0.191l-2.218,-0.438l-0.323,-0.093l-0.009,0.026l-4.975,-0.982c-0.679,-0.135 -1.131,-0.303 -1.357,-0.521c-0.224,-0.216 -0.277,-0.625 -0.154,-1.229l5.006,-24.705l-8.581,5.688l-3.889,18.997l-6.181,-1.221l0.016,-0.173l-1.76,-0.17l-0.864,-0.171l-0.019,0.085l-5.922,-0.578l-1.794,-8.579l-5.999,4.472l0.777,3.421l-8.644,-0.844l-0,-0.008l-0.088,0l-2.632,-0.256l-0.024,0.236l-4.197,-0.031c-0.914,-0.006 -1.496,-0.04 -1.75,-0.111c-0.672,-0.171 -1.001,-1.185 -0.986,-3.038l0.175,-23.431l-7.321,6.981l-0.17,22.456l0.043,1.077l-0.008,1.578c-0.012,1.82 1.224,2.739 3.72,2.757l12.685,0.09l8.062,0.788l2.372,-2.285l0.646,2.58l10.696,1.044l6.049,1.194l1.86,-1.728c-0.015,0.971 0.425,1.684 1.316,2.15c0.454,0.226 1.381,0.475 2.775,0.755l9.437,1.86l12.772,3.685c0.702,-0.754 1.113,-1.21 1.235,-1.366c0.661,-0.8 1.316,-1.621 1.963,-2.457l2.242,-3.01c0.759,-1.019 1.345,-2.229 1.772,-3.641l2.516,-12.112l0.992,0.784l4.261,-4.825l-4.563,-3.505Z" style="fill:#622d50;fill-rule:nonzero;"></path><path d="M396.701,81.961c0.381,0.878 0.726,2.181 1.029,3.895c0.3,1.718 0.47,3.316 0.503,4.79l-0.456,0.349c-2.295,1.743 -4.422,2.799 -6.384,3.172c-2.667,0.486 -5.027,0.284 -7.079,-0.607c-1.115,-0.482 -2.462,-1.383 -4.038,-2.705c1.145,6.441 2.843,10.151 5.094,11.126c2.016,0.876 4.857,0.272 8.517,-1.805c1.87,-1.054 3.656,-2.439 5.367,-4.164c1.806,-1.843 3.102,-3.633 3.881,-5.375c1.207,-2.689 1.321,-6.563 0.33,-11.626l-6.764,2.95Z" style="fill:#622d50;fill-rule:nonzero;"></path><path d="M457.32,91.119l-2.19,-7.218l-5.743,0.729l2.282,7.189l5.651,-0.7Z" style="fill:#622d50;fill-rule:nonzero;"></path><path d="M494.71,123.472l-1.056,-7.401l-5.787,-0.153l1.15,7.456l5.693,0.098Z" style="fill:#622d50;fill-rule:nonzero;"></path><path d="M481.18,140.371l-15.626,-14.072c2.667,0.455 4.451,0.794 5.352,1.013l3.994,1.014c2.219,0.553 3.702,1.165 4.439,1.829c1.21,1.088 1.971,2.722 2.279,4.904c0.215,1.915 0.068,3.684 -0.438,5.312m-36.778,-34.128l-0.533,0.581l-3.843,-0.304l-1.339,-3.667c2.192,-1.108 3.931,-1.232 5.234,-0.374c1.403,0.932 1.561,2.185 0.481,3.764m42.065,21.566c-0.712,-0.641 -2.055,-1.233 -4.031,-1.779c-1.975,-0.546 -3.909,-1.049 -5.806,-1.507c-1.506,-0.344 -2.86,-0.63 -4.045,-0.862l-1.75,-0.318l-1.804,-0.37l0.166,0.016c1.57,-0.669 2.81,-1.523 3.725,-2.555l4.525,-5.474l0.595,1.147l5.957,-2.484l-1.527,-2.97l-0.831,-1.733c-0.639,-1.323 -0.956,-2.224 -0.948,-2.708c0.003,-0.486 0.38,-1.125 1.127,-1.923l-5.617,1.128c-1.053,0.205 -1.75,0.484 -2.083,0.839c-0.587,0.627 -0.561,1.466 0.07,2.509l-10.109,13.354l-2.185,-0.438l-1.982,-0.461l-6.684,-6.018l-0.343,0.366l-7.36,-4.87c0.605,-0.303 1.042,-0.525 1.313,-0.667c2.03,-0.973 3.586,-2.249 4.675,-3.825c0.974,-1.428 1.379,-2.978 1.218,-4.656c-0.118,-1.85 -0.922,-3.268 -2.419,-4.256c-2.281,-1.512 -6.526,-1.217 -12.729,0.876c-2.49,0.809 -4.78,1.713 -6.878,2.724l-7.136,-4.724l-0.316,0.456l-3.666,-1.915c-0.803,-0.42 -1.304,-0.715 -1.499,-0.892c-0.513,-0.458 -0.323,-1.509 0.56,-3.143l11.213,-20.687l-9.786,2.86l-10.743,19.824l-0.466,0.981l-0.753,1.388c-0.872,1.609 -0.203,2.985 1.998,4.135l11.629,6.073l0.105,-0.194l9.749,6.447l2.958,-0.274l1.504,3.229l14.23,9.416l0.018,-0.024l25.932,23.352c1.644,-0.378 3.808,-1.141 6.496,-2.287c2.691,-1.145 4.402,-2.111 5.138,-2.897c1.805,-1.93 2.147,-5.142 1.034,-9.636c-0.525,-2.059 -1.341,-3.585 -2.439,-4.573" style="fill:#622d50;fill-rule:nonzero;"></path><path d="M526.547,159.893l5.766,1.418l0.446,-7.495l-3.961,-0.962l0.158,-4.087l-5.533,-1.154l-0.582,7.359l3.845,0.848l-0.139,4.073Z" style="fill:#622d50;fill-rule:nonzero;"></path><path d="M507.006,169.438l-4.238,-7.601l7.67,3.744l-3.432,3.857Zm21.311,40.465l1.622,-0.027l1.009,0.029l0.494,-0.212c0.326,-0.179 0.645,-0.666 0.944,-1.468l5.706,-18.557l11.143,11.769l8.477,-0.255l-16.816,-18.092l-8.181,0.465l-1.358,0.127l-0.633,0.168c-0.523,0.281 -0.842,0.764 -0.96,1.445l-1.001,4.452l1.45,0.343l-3.588,11.553l-10.512,-18.461l0.043,-0.033l-0.246,-0.327l-1.084,-1.903l-0.246,0.137l-3.788,-5.025l11.418,-12.928l-7.91,-1.998l-0.937,1.113l-8.972,-4.496c-1.143,-0.59 -2.342,-0.7 -3.602,-0.319l-8.734,2.638l7.279,13.03l4.801,-0.28l-3.413,3.846l8.062,10.709l12.875,22.616l6.658,-0.059Z" style="fill:#622d50;fill-rule:nonzero;"></path><path d="M579.327,250.932l-3.068,6.915l4.812,3.017l3.071,-6.807l-4.815,-3.125Z" style="fill:#622d50;fill-rule:nonzero;"></path><path d="M574.713,254.952l-4.722,-3.07l-3.21,6.679l3.198,2.173l-1.558,3.698l4.829,3.371l3.146,-6.825l-3.361,-2.269l1.678,-3.757Z" style="fill:#622d50;fill-rule:nonzero;"></path><path d="M555.574,278.376l-1.713,-6.131l9.722,-8.651l-6.339,-2.913l-5.357,4.502l-2.048,-7.348l-0,-0.002l-0.212,-0.751l9.737,-8.598l-6.354,-2.965l-5.332,4.581l-4.868,-17.44l-1.296,0.35l-1.838,-4.219l0.119,-0.108c0.93,-0.841 1.744,-1.699 2.455,-2.58c0.345,-0.515 1.02,-1.497 2.011,-2.95l0.431,-0.675l-7.001,-2.368c-0.329,0.897 -0.979,2.081 -1.944,3.545c-0.973,1.471 -1.959,2.745 -2.966,3.829l-0.576,-0.048c-2.893,-0.268 -5.179,-0.918 -6.874,-1.956c-2.3,-1.468 -3.886,-3.183 -4.742,-5.159c-0.49,-1.117 -0.848,-2.687 -1.085,-4.709c-3.638,5.478 -4.975,9.33 -4.009,11.547c0.753,1.729 2.781,3.07 6.088,4.036c2.505,0.736 5.862,0.98 10.083,0.726l0.161,-0.01l3.149,7.226l0.771,-0.324l3.821,13.689l3.48,1.567l-2.461,2.081l0.341,1.217l-0.001,0l2.861,10.243l3.495,1.621l-2.477,2.03l3.11,11.122c1.173,0.222 1.801,0.34 1.893,0.352c1.367,0.155 2.4,0.255 3.102,0.309c2.16,0.218 3.379,0.32 3.662,0.317c1.165,0.023 2.376,-0.135 3.619,-0.471c3.119,-0.835 5.633,-2.691 7.544,-5.562l-7.815,-3.184c-0.84,1.544 -2.288,2.954 -4.347,4.232" style="fill:#622d50;fill-rule:nonzero;"></path><path d="M41.6,350.219l22.502,-5.383l1.225,5.261c0.6,2.583 0.246,4.834 -1.064,6.75c-1.316,1.924 -3.263,3.19 -5.853,3.808l-4.7,1.127c-2.616,0.627 -4.933,0.378 -6.953,-0.745c-2.02,-1.118 -3.33,-2.965 -3.93,-5.545l-1.227,-5.273Zm13.36,16.937l4.66,-1.114c3.827,-0.911 6.654,-2.941 8.494,-6.083c1.837,-3.141 2.278,-6.758 1.326,-10.839l-2.476,-10.647l-30.708,7.344l2.477,10.643c0.953,4.094 2.936,7.12 5.949,9.106c3.015,1.982 6.441,2.51 10.278,1.59" style="fill:#622d50;fill-rule:nonzero;"></path><path d="M79.348,382.695l-13.109,4.594l-4.77,-13.992l13.11,-4.59l-1.778,-5.224l-29.822,10.448l1.783,5.224l12.716,-4.459l4.767,13.996l-12.719,4.456l1.782,5.22l29.819,-10.449l-1.779,-5.224Z" style="fill:#622d50;fill-rule:nonzero;"></path><path d="M66.411,416.661c-2.139,-0.611 -3.731,-2.067 -4.775,-4.362c-1.005,-2.205 -1.027,-4.309 -0.067,-6.314c0.959,-1.994 2.643,-3.565 5.058,-4.692l5.195,-2.428c2.385,-1.12 4.639,-1.4 6.751,-0.847c2.116,0.557 3.673,1.937 4.685,4.159c1.039,2.282 1.094,4.454 0.168,6.509c-0.927,2.05 -2.583,3.637 -4.972,4.752l-5.193,2.425c-2.427,1.144 -4.71,1.408 -6.85,0.798m9.132,4.223l5.155,-2.413c3.489,-1.631 5.863,-4.146 7.119,-7.538c1.255,-3.39 1.045,-6.926 -0.627,-10.6c-1.638,-3.605 -4.127,-5.993 -7.458,-7.161c-3.334,-1.172 -6.746,-0.94 -10.233,0.696l-5.157,2.409c-3.501,1.639 -5.889,4.125 -7.163,7.461c-1.275,3.337 -1.095,6.796 0.541,10.392c1.676,3.686 4.193,6.144 7.544,7.373c3.35,1.229 6.777,1.021 10.279,-0.619" style="fill:#622d50;fill-rule:nonzero;"></path><path d="M86.454,438.884l3.664,-2.136l-6.565,-11.568l8.356,-4.881l7.707,13.581l3.662,-2.14l-10.424,-18.367l-27.344,15.966l2.716,4.784l11.663,-6.802l6.565,11.563Z" style="fill:#622d50;fill-rule:nonzero;"></path><path d="M94.772,454.398l-4.875,-7.165l12.656,-3.613l0.078,0.118l-7.859,10.66Zm12.404,-17.101l-32.44,8.658l3.194,4.7l7.492,-2.149l6.569,9.66l-4.652,6.319l3.196,4.699l19.582,-27.566l-2.941,-4.321Z" style="fill:#622d50;fill-rule:nonzero;"></path><path d="M111.999,467.739l-3.532,-4.272l7.672,-6.522l3.717,4.496c1.3,1.563 1.916,3.027 1.859,4.386c-0.055,1.351 -0.694,2.547 -1.912,3.58c-1.274,1.083 -2.541,1.498 -3.804,1.25c-1.264,-0.248 -2.596,-1.225 -4,-2.918m2.693,6.404c1.622,0.835 3.16,1.213 4.625,1.123c1.462,-0.089 2.821,-0.663 4.07,-1.725c2.26,-1.92 3.359,-4.174 3.298,-6.75c-0.057,-2.584 -1.257,-5.285 -3.591,-8.108l-7.219,-8.724l-24.173,20.559l3.503,4.236l10.024,-8.528l4.135,4.996c1.068,1.29 1.546,2.621 1.437,3.988c-0.112,1.375 -0.788,2.587 -2.028,3.637l-1.941,1.652c-0.777,0.659 -1.495,1.383 -2.169,2.172c-0.667,0.79 -0.989,1.567 -0.972,2.344l3.6,4.353l0.385,-0.325c0,-0.732 0.26,-1.473 0.779,-2.233c0.523,-0.761 1.137,-1.445 1.845,-2.047l2.008,-1.709c1.438,-1.224 2.384,-2.564 2.834,-4.028c0.452,-1.464 0.301,-3.088 -0.45,-4.883" style="fill:#622d50;fill-rule:nonzero;"></path><path d="M136.883,474.058l-22.209,22.728l3.871,3.89l22.205,-22.732l-3.867,-3.886Z" style="fill:#622d50;fill-rule:nonzero;"></path><path d="M157.396,493.039l-14.79,17.446l-0.13,-0.057l3.853,-27.04l-4.13,-3.597l-20.569,24.257l4.129,3.601l14.792,-17.442l0.13,0.057l-3.854,27.041l4.131,3.6l20.572,-24.262l-4.134,-3.604Z" style="fill:#622d50;fill-rule:nonzero;"></path><path d="M169.227,523.464c-0.556,-2.367 -1.969,-4.931 -4.243,-7.689c-1.667,-2.06 -2.718,-3.727 -3.162,-5.013c-0.441,-1.293 -0.313,-2.442 0.381,-3.45c0.762,-1.103 1.792,-1.713 3.088,-1.831c1.294,-0.123 2.693,0.358 4.201,1.428c1.554,1.103 2.518,2.396 2.893,3.874c0.372,1.48 0.081,2.908 -0.871,4.292l4.299,3.051l0.109,-0.081c1.604,-2.189 2.065,-4.655 1.377,-7.405c-0.685,-2.75 -2.473,-5.147 -5.36,-7.202c-2.696,-1.912 -5.37,-2.791 -8.032,-2.64c-2.656,0.15 -4.715,1.281 -6.172,3.393c-1.407,2.046 -1.77,4.252 -1.08,6.619c0.683,2.381 2.199,4.981 4.537,7.8c1.628,1.982 2.598,3.597 2.907,4.854c0.307,1.254 0.085,2.429 -0.67,3.524c-0.769,1.115 -1.819,1.692 -3.144,1.721c-1.327,0.037 -2.782,-0.508 -4.361,-1.632c-1.591,-1.131 -2.664,-2.486 -3.223,-4.068c-0.558,-1.591 -0.295,-3.166 0.791,-4.74l-4.297,-3.048l-0.114,0.077c-1.843,2.539 -2.239,5.233 -1.196,8.085c1.044,2.848 2.923,5.24 5.641,7.169c2.828,2.01 5.56,2.978 8.195,2.922c2.63,-0.066 4.699,-1.18 6.196,-3.353c1.426,-2.067 1.862,-4.284 1.31,-6.657" style="fill:#622d50;fill-rule:nonzero;"></path><path d="M203.258,523.216l-4.748,-2.713l-10.19,18.366c-1.101,1.981 -2.533,3.173 -4.305,3.584c-1.774,0.412 -3.621,0.065 -5.55,-1.037c-1.861,-1.063 -3.059,-2.458 -3.595,-4.183c-0.53,-1.725 -0.251,-3.572 0.845,-5.554l10.192,-18.366l-4.746,-2.714l-10.197,18.366c-1.718,3.109 -2.049,6.12 -0.99,9.028c1.058,2.918 3.2,5.298 6.433,7.142c3.281,1.871 6.449,2.522 9.5,1.953c3.051,-0.571 5.437,-2.409 7.159,-5.51l10.192,-18.362Z" style="fill:#622d50;fill-rule:nonzero;"></path><path d="M208.521,541.265l-5.04,-2.226l4.009,-9.309l5.299,2.352c1.849,0.818 3.047,1.847 3.588,3.084c0.546,1.241 0.497,2.6 -0.135,4.077c-0.668,1.546 -1.62,2.485 -2.863,2.832c-1.24,0.35 -2.863,0.073 -4.858,-0.81m5.194,18.68c0.134,-0.915 0.384,-1.807 0.757,-2.662l1.045,-2.441c0.753,-1.745 1.009,-3.373 0.773,-4.886c-0.242,-1.51 -1.089,-2.901 -2.549,-4.17c1.821,0.019 3.363,-0.339 4.638,-1.079c1.27,-0.736 2.232,-1.867 2.885,-3.385c1.182,-2.738 1.174,-5.244 -0.012,-7.531c-1.186,-2.287 -3.444,-4.167 -6.772,-5.64l-10.297,-4.556l-12.62,29.327l4.994,2.205l5.236,-12.161l5.898,2.608c1.52,0.679 2.533,1.652 3.037,2.934c0.501,1.269 0.428,2.664 -0.22,4.166l-1.012,2.356c-0.408,0.939 -0.737,1.912 -0.991,2.921c-0.25,1.005 -0.198,1.851 0.158,2.539l5.137,2.27l0.198,-0.463c-0.324,-0.652 -0.415,-1.437 -0.283,-2.352" style="fill:#622d50;fill-rule:nonzero;"></path><path d="M226.633,554.48l7.883,-10.672l0.128,0.049l0.157,13.305l-8.168,-2.682Zm7.759,-18.54l-20.558,26.881l5.357,1.758l4.657,-6.327l11.007,3.617l0.097,7.889l5.354,1.758l-0.989,-33.962l-4.925,-1.614Z" style="fill:#622d50;fill-rule:nonzero;"></path><path d="M268.3,544.833l-4.67,22.517l-0.139,0.016l-9.474,-25.576l-5.33,-1.139l-6.495,31.304l5.329,1.139l4.674,-22.515l0.14,-0.008l9.472,25.575l5.328,1.131l6.497,-31.305l-5.332,-1.139Z" style="fill:#622d50;fill-rule:nonzero;"></path><path d="M286.606,546.819c-3.736,-0.383 -6.884,0.569 -9.456,2.848c-2.567,2.279 -4.044,5.355 -4.429,9.227l-0.6,6.063c-0.385,3.889 0.472,7.201 2.573,9.944c2.102,2.742 5.044,4.301 8.819,4.687c3.719,0.374 6.768,-0.309 9.151,-2.058c2.382,-1.754 3.703,-4.236 3.963,-7.45l-0.032,-0.134l-5.221,-0.537c-0.213,2.147 -0.95,3.726 -2.216,4.747c-1.267,1.021 -3.006,1.417 -5.221,1.193c-2.263,-0.232 -3.964,-1.269 -5.103,-3.117c-1.139,-1.847 -1.577,-4.093 -1.314,-6.729l0.604,-6.1c0.259,-2.608 1.115,-4.707 2.573,-6.286c1.457,-1.578 3.284,-2.262 5.488,-2.034c2.276,0.232 3.94,0.968 5.006,2.221c1.062,1.249 1.487,2.938 1.278,5.07l5.242,0.529l0.057,-0.122c0.389,-3.321 -0.417,-6.047 -2.423,-8.179c-2.006,-2.131 -4.917,-3.393 -8.739,-3.783" style="fill:#622d50;fill-rule:nonzero;"></path><path d="M304.123,565.982l12.783,0.074l0.022,-4.28l-12.784,-0.074l0.051,-9.032l14.91,0.081l0.026,-4.281l-20.362,-0.113l-0.169,31.992l20.516,0.11l0.021,-4.256l-15.067,-0.085l0.053,-10.136Z" style="fill:#622d50;fill-rule:nonzero;"></path><path d="M352.037,566.577l-5.208,0.635c0.256,2.14 -0.127,3.844 -1.143,5.118c-1.016,1.278 -2.629,2.046 -4.839,2.319c-2.257,0.273 -4.139,-0.367 -5.647,-1.913c-1.509,-1.55 -2.421,-3.637 -2.732,-6.273l-0.722,-6.087c-0.31,-2.604 0.077,-4.838 1.157,-6.706c1.081,-1.863 2.722,-2.929 4.916,-3.197c2.27,-0.277 4.06,0.072 5.366,1.058c1.308,0.989 2.085,2.538 2.335,4.662l5.233,-0.634l0.03,-0.138c-0.336,-3.325 -1.71,-5.807 -4.123,-7.447c-2.417,-1.636 -5.529,-2.221 -9.346,-1.757c-3.723,0.456 -6.591,2.075 -8.612,4.866c-2.017,2.795 -2.799,6.123 -2.339,9.992l0.72,6.047c0.458,3.881 2.008,6.925 4.653,9.134c2.636,2.21 5.845,3.088 9.61,2.624c3.713,-0.451 6.543,-1.798 8.487,-4.032c1.947,-2.233 2.704,-4.951 2.266,-8.146l-0.062,-0.125Z" style="fill:#622d50;fill-rule:nonzero;"></path><path d="M372.602,565.934c-1.026,2.002 -2.757,3.283 -5.186,3.849c-2.331,0.553 -4.364,0.146 -6.101,-1.217c-1.737,-1.355 -2.903,-3.348 -3.503,-5.977l-1.29,-5.656c-0.59,-2.595 -0.4,-4.89 0.566,-6.875c0.966,-1.986 2.622,-3.251 4.966,-3.801c2.419,-0.57 4.519,-0.183 6.316,1.156c1.793,1.343 2.987,3.311 3.576,5.908l1.288,5.651c0.605,2.645 0.391,4.96 -0.632,6.962m4.663,-13.814c-0.865,-3.8 -2.806,-6.668 -5.824,-8.605c-3.017,-1.94 -6.474,-2.449 -10.361,-1.538c-3.819,0.895 -6.628,2.873 -8.439,5.945c-1.809,3.067 -2.279,6.501 -1.414,10.298l1.277,5.61c0.869,3.808 2.782,6.685 5.743,8.634c2.961,1.949 6.34,2.473 10.14,1.583c3.902,-0.912 6.788,-2.905 8.658,-5.985c1.868,-3.08 2.368,-6.522 1.502,-10.335l-1.282,-5.607Z" style="fill:#622d50;fill-rule:nonzero;"></path><path d="M399.004,530.3l-0.424,26.406l-0.126,0.048l-17.217,-19.782l-6.707,2.519l10.958,30.007l5.108,-1.921l-8.014,-21.946l0.112,-0.086l16.609,18.765l3.509,-1.322l0.554,-24.738l0.132,-0.024l7.87,21.548l5.113,-1.916l-10.961,-30.007l-6.516,2.449Z" style="fill:#622d50;fill-rule:nonzero;"></path><path d="M427.957,531.529c-0.423,1.408 -1.53,2.588 -3.32,3.532l-6.27,3.295l-5.129,-10.026l6.266,-3.295c1.792,-0.944 3.387,-1.172 4.779,-0.684c1.4,0.488 2.465,1.453 3.204,2.897c0.736,1.44 0.891,2.865 0.47,4.281m-1.642,-11.824c-2.643,-0.668 -5.556,-0.154 -8.754,1.526l-11.103,5.838l14.529,28.4l4.835,-2.539l-5.508,-10.766l6.268,-3.304c3.201,-1.68 5.288,-3.804 6.282,-6.363c0.988,-2.555 0.801,-5.167 -0.564,-7.837c-1.351,-2.636 -3.345,-4.287 -5.985,-4.955" style="fill:#622d50;fill-rule:nonzero;"></path><path d="M437.842,517.907l10.206,8.373l-7.251,4.666l-3.067,-12.967l0.112,-0.072Zm-6.168,-4.85l7.286,33.2l4.753,-3.055l-1.827,-7.67l9.769,-6.29l6.044,4.956l4.752,-3.06l-26.408,-20.897l-4.369,2.816Z" style="fill:#622d50;fill-rule:nonzero;"></path><path d="M482.569,470.303l-4.32,4.337l5.201,16.673l-16.387,-5.443l-3.153,3.165l-3.91,3.17l14.173,17.967l-0.077,0.117l-25.491,-8.828l-4.256,3.443l19.714,24.985l4.251,-3.455l-14.171,-17.963l0.078,-0.117l25.49,8.837l4.255,-3.451l-17.751,-22.5l18.657,5.566l7.991,8.187l3.855,-3.874l-7.763,-7.946l-6.386,-22.87Z" style="fill:#622d50;fill-rule:nonzero;"></path><path d="M514.688,480.564c-3.412,-0.985 -7.031,-3.068 -10.86,-6.258l-0.336,-0.277c-3.824,-3.189 -6.544,-6.396 -8.149,-9.61c-1.605,-3.206 -2.342,-6.071 -2.206,-8.589l-2.882,-1.078l-0.104,0.089c-0.784,2.922 -0.368,6.583 1.231,10.99c1.605,4.407 4.601,8.438 8.998,12.104l0.268,0.224c4.397,3.666 8.878,5.863 13.439,6.612c4.557,0.732 8.188,0.435 10.882,-0.907l0.085,-0.106l-1.501,-2.575c-2.496,0.561 -5.45,0.358 -8.865,-0.619" style="fill:#622d50;fill-rule:nonzero;"></path><path d="M525.329,452.225c-2.026,-1.452 -4.207,-1.912 -6.549,-1.363c-2.341,0.545 -4.878,1.962 -7.614,4.248c-2.039,1.676 -3.694,2.726 -4.97,3.17c-1.272,0.444 -2.401,0.305 -3.395,-0.407c-1.079,-0.777 -1.676,-1.827 -1.784,-3.145c-0.111,-1.31 0.367,-2.727 1.434,-4.248c1.098,-1.571 2.378,-2.539 3.838,-2.913c1.469,-0.366 2.877,-0.066 4.232,0.919l3.035,-4.345l-0.079,-0.114c-2.148,-1.635 -4.577,-2.116 -7.293,-1.44c-2.716,0.675 -5.092,2.473 -7.137,5.387c-1.902,2.718 -2.787,5.427 -2.656,8.129c0.13,2.693 1.234,4.784 3.303,6.282c2.008,1.44 4.179,1.823 6.524,1.139c2.35,-0.679 4.919,-2.197 7.719,-4.549c1.96,-1.639 3.562,-2.611 4.805,-2.917c1.239,-0.305 2.396,-0.07 3.468,0.696c1.097,0.793 1.654,1.859 1.679,3.206c0.024,1.343 -0.525,2.815 -1.64,4.41c-1.125,1.612 -2.468,2.694 -4.034,3.244c-1.568,0.557 -3.125,0.276 -4.667,-0.835l-3.035,4.342l0.079,0.109c2.488,1.889 5.141,2.311 7.959,1.269c2.817,-1.037 5.187,-2.928 7.109,-5.671c2.001,-2.857 2.975,-5.619 2.932,-8.292c-0.042,-2.669 -1.131,-4.777 -3.263,-6.311" style="fill:#622d50;fill-rule:nonzero;"></path><path d="M528.911,451.896l4.297,2.693l2.855,-4.687l-4.301,-2.685l-2.851,4.679Z" style="fill:#622d50;fill-rule:nonzero;"></path><path d="M522.491,424.395l12.955,2.145l-4.022,7.697l-8.998,-9.724l0.065,-0.118Zm-7.73,-1.118l22.546,25.185l2.635,-5.041l-5.332,-5.75l5.415,-10.366l7.673,1.269l2.635,-5.037l-33.145,-4.903l-2.427,4.643Z" style="fill:#622d50;fill-rule:nonzero;"></path><path d="M545.904,420.241l4.606,2.1l2.223,-5.021l-4.605,-2.1l-2.224,5.021Z" style="fill:#622d50;fill-rule:nonzero;"></path><path d="M555.366,400.248c-0.828,2.27 -2.28,3.776 -4.353,4.5c-2.073,0.728 -4.358,0.622 -6.852,-0.309l-5.366,-2.006c-2.466,-0.92 -4.256,-2.34 -5.363,-4.244c-1.105,-1.912 -1.243,-4.007 -0.413,-6.299c0.86,-2.359 2.335,-3.938 4.421,-4.72c2.087,-0.788 4.365,-0.724 6.833,0.205l5.369,2.005c2.506,0.936 4.302,2.389 5.389,4.35c1.086,1.968 1.2,4.137 0.335,6.518m-3.841,-16.055l-5.326,-1.994c-3.607,-1.347 -7.034,-1.269 -10.291,0.228c-3.253,1.498 -5.57,4.142 -6.954,7.942c-1.355,3.727 -1.263,7.193 0.279,10.415c1.54,3.215 4.111,5.502 7.718,6.848l5.326,1.99c3.62,1.355 7.044,1.31 10.27,-0.13c3.224,-1.44 5.513,-4.02 6.867,-7.731c1.381,-3.816 1.319,-7.356 -0.191,-10.627c-1.513,-3.272 -4.078,-5.583 -7.698,-6.941" style="fill:#622d50;fill-rule:nonzero;"></path><path d="M563.374,388.506l-4.789,-1.474l1.616,-5.253l4.79,1.474l-1.617,5.253Z" style="fill:#622d50;"></path><path d="M567.761,354.048l-11.609,-2.731l-2.774,12.137l3.841,0.907l1.545,-6.762l6.353,1.498c0.418,0.643 0.696,1.509 0.842,2.599c0.143,1.091 0.016,2.503 -0.376,4.228c-0.525,2.29 -1.746,3.963 -3.672,5.009c-1.921,1.053 -4.121,1.281 -6.6,0.703l-6.459,-1.517c-2.447,-0.578 -4.31,-1.733 -5.592,-3.475c-1.274,-1.737 -1.66,-3.723 -1.152,-5.952c0.485,-2.112 1.382,-3.609 2.696,-4.492c1.312,-0.879 2.835,-1.119 4.567,-0.712l1.168,-5.119l-0.112,-0.093c-2.885,-0.741 -5.47,-0.277 -7.749,1.399c-2.279,1.676 -3.849,4.387 -4.706,8.138c-0.855,3.735 -0.38,7.071 1.421,9.997c1.798,2.929 4.557,4.825 8.269,5.7l6.421,1.505c3.714,0.875 7.024,0.358 9.933,-1.55c2.901,-1.908 4.791,-4.764 5.66,-8.572c0.7,-3.077 0.806,-5.697 0.316,-7.853c-0.493,-2.165 -1.238,-3.83 -2.231,-4.992" style="fill:#622d50;fill-rule:nonzero;"></path><path d="M575.26,345.532c-3.614,-3.015 -8.196,-4.964 -13.75,-5.851l-0.342,-0.049c-5.536,-0.879 -10.487,-0.435 -14.855,1.327c-4.363,1.757 -7.357,3.913 -8.973,6.444l-0.024,0.139l2.599,1.464c1.782,-1.676 4.421,-2.998 7.91,-3.954c3.487,-0.961 7.656,-1.054 12.507,-0.285l0.432,0.073c4.907,0.772 8.88,2.14 11.912,4.093c3.032,1.953 5.123,4.04 6.273,6.266l2.898,-0.603l0.021,-0.134c-0.787,-2.933 -2.99,-5.903 -6.608,-8.93" style="fill:#622d50;fill-rule:nonzero;"></path><path d="M181.454,465.188c-0,0 7.765,11.177 29.313,21.865c54.109,26.838 119.626,22.435 153.675,15.335c34.054,-7.095 65.439,-33.509 65.439,-33.509c-42.068,-2.279 -66.414,-5.843 -105.115,-21.296c-42.29,12.869 -82.418,18.362 -143.312,17.605" style="fill:#622d50;fill-rule:nonzero;"></path><path d="M331.276,427.431l-1.629,-1.274c9.746,2.067 19.97,3.833 30.161,4.854c-0.902,0.924 -1.623,1.664 -2.109,2.168c-8.099,-0.243 -14.363,-0.52 -17.668,-0.781c-5.866,-2.803 -8.694,-4.922 -8.755,-4.967m-4.583,-0.992c-0.08,0.019 -2.724,0.654 -7.725,1.797l-13.941,-8.035c7.303,1.945 15.3,3.954 23.668,5.753l-2.002,0.485Zm138.124,16.579l-0.952,-10.746c-20.968,1.852 -61.796,1.839 -91.395,1.266c7.639,-7.613 15.194,-14.635 18.616,-16.975c8.573,3.386 39.548,13.818 85.091,8.842l1.658,-10.925c-49.659,5.428 -84.287,-8.569 -84.593,-8.707l-1.236,-0.569l-1.357,0.084c-2.637,0.167 -5.976,1.413 -20.158,15.092c-0.204,0.195 -0.41,0.395 -0.611,0.59c-26.915,-1.241 -53.841,-7.934 -74.52,-12.341c-7.575,-1.611 -16.988,-4.174 -21.245,-5.037l-0,2.718c-10.337,4.142 -72.989,28.026 -126.873,21.231l-0.004,10.863c7.082,0.895 12.932,1.119 20.108,1.119c25.48,0 50.632,-4.919 68.922,-9.647c20.074,-5.188 35.253,-10.912 41.026,-13.215l26.116,15.058c-10.695,2.348 -24.869,5.375 -42.112,8.874c-41.002,8.309 -94.516,8.695 -95.051,8.699l1.088,10.571c2.23,-0.009 54.053,-0.171 96.105,-8.699c34.213,-6.933 56.455,-12.048 63.43,-13.68c6.194,3.988 25.382,14.481 60.695,18.302c37.397,4.04 56.035,4.296 60.135,4.296c0.488,-0 0.757,-1.009 0.836,-1.009l0.836,-9.724c-0.179,0.004 -19.576,0.146 -60.646,-4.289c-1.609,-0.179 -3.176,-0.366 -4.711,-0.569c7.595,0.098 15.591,0.155 23.582,0.155c21.825,-0 43.637,-0.424 57.22,-1.628" style="fill:#622d50;fill-rule:nonzero;"></path><path d="M720.183,243.405c-0,4.714 -3.716,8.574 -8.719,8.574c-4.713,-0 -8.573,-3.574 -8.573,-8.715c0,-4.719 3.86,-8.578 8.573,-8.578c5.003,-0 8.719,3.718 8.719,8.719m57.159,39.011l-16.577,0c-2.715,0 -5.288,-0.287 -7.717,-1c-3.571,20.005 -19.146,32.437 -42.583,32.437c-13.575,-0 -23.865,-4.143 -30.866,-12.574c-6.287,-7.715 -9.431,-18.435 -9.431,-32.295l0,-26.007l14.003,-0l0,25.58c0,22.291 10.432,36.295 28.294,36.295c7.432,0 13.719,-3.001 18.864,-9.145c5.571,-6.717 8.431,-15.294 8.431,-26.01l-0,-24.721l-2.716,-18.863l16.719,-4.001l-0,33.153c-0,9.573 3.429,14.29 10.432,14.29l13.147,0l0,12.861Z" style="fill:#622d50;fill-rule:nonzero;"></path><rect x="770.488" y="269.556" width="52.587" height="12.86" style="fill:#622d50;"></rect><rect x="819.075" y="269.556" width="52.584" height="12.86" style="fill:#622d50;"></rect><path d="M907.245,305.421c0,4.432 -3.719,8.577 -8.719,8.577c-4.717,-0 -8.572,-3.573 -8.572,-8.718c-0,-4.714 3.855,-8.574 8.572,-8.574c4.715,0 8.719,3.715 8.719,8.715m15.861,-23.005l-10.72,0c-5.713,0 -10.431,-1.43 -14.004,-4.287c-3.715,2.857 -8.287,4.287 -13.718,4.287l-17.002,0l0,-12.861l13.288,0c7.001,0 10.434,-3.714 10.434,-11.288l0,-14.717l-2.861,-18.437l17.006,-3.714l0,36.868c0,7.574 3.429,11.288 10.431,11.288l7.146,0l0,12.861Zm-38.584,23.005c0,4.432 -3.859,8.577 -8.859,8.577c-4.573,-0 -8.718,-3.573 -8.718,-8.718c0,-4.714 4.145,-8.574 8.718,-8.574c4.714,0 8.859,3.715 8.859,8.715" style="fill:#622d50;fill-rule:nonzero;"></path><path d="M977.263,238.405l-1.141,-8.292c-2.143,-0.713 -4.717,-0.998 -7.433,-0.998c-12.002,-0 -18.005,7.432 -18.005,22.436c0,12.002 4.145,18.004 12.292,18.004c10.145,0 15.29,-6.43 15.29,-19.149c-0,-3.287 -0.286,-7.287 -1.003,-12.001m15.007,-15.861l-1.288,14.858l-0,19.862c-0,16.719 -10.718,25.152 -32.011,25.152l-39.865,0l-0,-12.861l21.719,0c-2.857,-4.858 -4.286,-10.002 -4.286,-15.289c0,-10.576 3.143,-19.008 9.431,-25.438c6.286,-6.429 14.862,-9.573 25.865,-9.573c6.858,0 13.719,1.145 20.435,3.289" style="fill:#622d50;fill-rule:nonzero;"></path><path d="M1042.86,282.416l-11.148,-0c-13.001,-0 -21.148,-8.002 -21.148,-21.293l0,-48.584l-2.429,-18.29l16.721,-3.859l-0,67.446c-0,7.86 3.427,11.72 10.288,11.72l7.716,0l0,12.86Zm-13.146,-98.884l-29.438,-0l-0,-5.29l5.143,-0c0,-7.857 4.147,-13.573 11.435,-13.573c3.002,0 5.858,0.999 8.573,2.857c-0.431,1.143 -0.999,2.574 -1.716,4.43c-2.144,-1.856 -3.855,-2.859 -5.145,-2.714c-4,-0 -5.999,3.001 -5.999,9l7.002,-0l5.287,-0.573l4.858,5.863Z" style="fill:#622d50;fill-rule:nonzero;"></path><path d="M1079.87,199.107c-0,4.715 -3.715,8.574 -8.719,8.574c-4.713,0 -8.573,-3.574 -8.573,-8.718c0,-4.715 3.86,-8.574 8.573,-8.574c5.004,-0 8.719,3.714 8.719,8.718m-22.864,0c-0,4.715 -3.715,8.574 -8.719,8.574c-4.713,0 -8.572,-3.574 -8.572,-8.718c-0,-4.715 3.859,-8.574 8.572,-8.574c5.004,-0 8.719,3.714 8.719,8.718m37.296,83.309l-10.718,0c-5.717,0 -10.43,-1.43 -14.004,-4.287c-3.859,2.857 -8.432,4.287 -13.717,4.287l-17.006,0l-0,-12.861l13.146,0c7.002,0 10.575,-3.714 10.575,-11.288l0,-13.862l-3.001,-18.579l17.006,-3.855l-0,36.296c-0,7.574 3.427,11.288 10.288,11.288l7.431,0l-0,12.861Z" style="fill:#622d50;fill-rule:nonzero;"></path><path d="M1145.03,282.416l-9.573,-0c-5.717,-0 -10.43,-1.43 -14.149,-4.432c-3.57,3.002 -8.142,4.432 -13.574,4.432l-17.432,-0l-0,-12.86l13.717,0c6.858,0 10.287,-3.86 10.287,-11.72l0,-44.439l-2.711,-19.148l17.001,-3.859l0,67.446c0,7.86 3.432,11.72 10.29,11.72l6.144,0l-0,12.86Z" style="fill:#622d50;fill-rule:nonzero;"></path><path d="M1189.05,261.123c0,13.292 -8.146,21.293 -21.293,21.293l-26.723,0l0,-12.861l23.296,0c7.001,0 10.43,-3.859 10.43,-11.718l0,-45.443l-2.43,-18.862l16.72,-4.001l0,71.592Z" style="fill:#622d50;fill-rule:nonzero;"></path><path d="M1250.06,276.413c0,19.294 -10.286,31.868 -30.72,37.586l-3.002,-5.577c13.147,-4.142 19.722,-13.287 19.722,-27.577l-0.145,-35.87l-2.857,-19.148l17.002,-3.856l0,54.442Z" style="fill:#622d50;fill-rule:nonzero;"></path><path d="M1300.65,282.416l-11.148,-0c-13.001,-0 -21.148,-8.002 -21.148,-21.293l0,-48.584l-2.429,-18.29l16.72,-3.859l0,67.446c0,7.86 3.428,11.72 10.286,11.72l7.719,0l-0,12.86Z" style="fill:#622d50;fill-rule:nonzero;"></path><rect x="1296.65" y="269.556" width="52.588" height="12.86" style="fill:#622d50;"></rect><rect x="1345.24" y="269.556" width="52.588" height="12.86" style="fill:#622d50;"></rect><path d="M1450.7,199.107c-0,4.715 -4,8.574 -8.574,8.574c-5.003,0 -8.86,-3.574 -8.86,-8.718c0,-4.715 3.857,-8.574 8.86,-8.574c4.574,-0 8.574,3.714 8.574,8.718m7.288,51.158c0,-6.147 -1.716,-10.86 -5.145,-14.29c-2.856,-2.86 -6.43,-4.286 -10.717,-4.286c-4.43,-0 -8.002,1.426 -10.861,4.286c-3.288,3.43 -5,8.143 -5,14.29c-0,14.001 5.286,21.003 16.003,21.003c5.145,0 9.145,-2.284 12.006,-6.858c2.429,-3.714 3.714,-8.431 3.714,-14.145m28.009,32.151l-31.868,0c-0.428,0 -4.429,-0.572 -12.003,-1.716c-7.002,1.144 -11.148,1.716 -12.146,1.716l-35.869,0l0,-12.861l24.152,0c-4.859,-4.858 -7.288,-11.003 -7.288,-18.577c0,-8.431 2.716,-15.289 8.287,-20.72c5.573,-5.571 13.147,-8.287 22.864,-8.287c9.717,0 17.293,2.716 22.864,8.287c5.572,5.431 8.288,12.289 8.288,20.72c0,7.574 -2.43,13.719 -7.43,18.577l20.149,0l-0,12.861Z" style="fill:#622d50;fill-rule:nonzero;"></path><path d="M1571.73,199.107c0,4.715 -3.714,8.574 -8.718,8.574c-4.713,0 -8.86,-3.574 -8.86,-8.574c0,-5.004 4.147,-8.718 8.86,-8.718c4.574,-0 8.718,3.714 8.718,8.718m12.861,70.448l0,-19.575c0,-10.862 -7.716,-16.293 -23.006,-16.293c-8.146,0 -17.291,4.86 -27.436,14.577c-8.574,8.146 -13.862,15.148 -16.006,21.291l66.448,0Zm14.431,12.861l-116.461,0l-0,-12.861l21.15,0l0,-55.73l-2.143,-17.578l17.86,-1.571l-1.571,18.863l-0,41.441c4.146,-7.716 10.289,-14.862 18.436,-21.293c9.717,-8.146 19.149,-12.146 28.436,-12.146c10.003,-0 18.149,2.287 24.58,7.001c6.429,4.718 9.713,11.003 9.713,19.15l-0,34.724Z" style="fill:#622d50;fill-rule:nonzero;"></path><path d="M683.938,383.339l-0,52.077l9.772,0c4.187,0 7.22,-0.393 9.098,-1.18c1.88,-0.786 3.419,-1.975 4.618,-3.564c1.199,-1.593 2.193,-4.104 2.981,-7.537c0.785,-3.433 1.18,-7.954 1.18,-13.57c0,-5.825 -0.403,-10.42 -1.207,-13.782c-0.805,-3.362 -2.059,-6.005 -3.759,-7.937c-1.701,-1.932 -3.766,-3.202 -6.202,-3.809c-1.824,-0.465 -5.35,-0.698 -10.574,-0.698l-5.907,-0Zm-12.991,-13.315l23.759,0c6.007,0 10.54,0.671 13.596,2.017c3.057,1.341 5.873,3.605 8.447,6.791c2.573,3.186 4.594,7.32 6.061,12.399c1.466,5.084 2.2,11.401 2.2,18.951c-0,6.801 -0.769,12.715 -2.309,17.744c-1.537,5.03 -3.485,9.011 -5.846,11.947c-2.358,2.934 -5.21,5.143 -8.553,6.631c-3.343,1.485 -7.641,2.227 -12.899,2.227l-24.456,-0l0,-78.707Z" style="fill:#622d50;fill-rule:nonzero;"></path><path d="M736.121,448.731l0,-78.707l12.994,0l-0,30.977l25.607,0l-0,-30.977l12.993,0l0,78.707l-12.993,-0l-0,-34.415l-25.607,-0l-0,34.415l-12.994,-0Z" style="fill:#622d50;fill-rule:nonzero;"></path><path d="M811.929,409.325c-0,9.055 1.72,15.846 5.161,20.373c3.441,4.529 7.706,6.793 12.797,6.793c5.125,-0 9.373,-2.248 12.743,-6.738c3.369,-4.491 5.055,-11.39 5.055,-20.696c-0,-9.126 -1.641,-15.873 -4.921,-20.242c-3.28,-4.365 -7.573,-6.551 -12.877,-6.551c-5.304,0 -9.625,2.204 -12.958,6.605c-3.334,4.402 -5,11.221 -5,20.456m-13.421,0.535c-0,-9.377 1.385,-17.097 4.16,-23.167c2.773,-6.066 6.397,-10.582 10.873,-13.555c4.473,-2.968 9.895,-4.456 16.265,-4.456c9.235,-0 16.757,3.527 22.576,10.577c5.815,7.052 8.723,17.093 8.723,30.12c-0,13.169 -3.077,23.461 -9.232,30.87c-5.405,6.55 -12.743,9.824 -22.012,9.824c-9.343,-0 -16.715,-3.241 -22.119,-9.716c-6.158,-7.412 -9.234,-17.576 -9.234,-30.497" style="fill:#622d50;fill-rule:nonzero;"></path><path d="M871.41,448.731l0,-78.707l44.239,0l-0,13.315l-31.245,-0l-0,18.632l27.059,0l-0,13.311l-27.059,-0l-0,33.449l-12.994,-0Z" style="fill:#622d50;fill-rule:nonzero;"></path><path d="M955.725,417.594l-8.91,-29.209l-8.742,29.209l17.652,-0Zm23.973,31.137l-14.124,-0l-5.653,-17.826l-25.834,0l-5.338,17.826l-13.85,-0l25.132,-78.707l13.8,0l25.867,78.707Z" style="fill:#622d50;fill-rule:nonzero;"></path><path d="M999.564,403.313l9.665,-0c5.906,-0 9.664,-0.261 11.275,-0.78c1.609,-0.518 2.914,-1.566 3.917,-3.141c1.004,-1.577 1.505,-3.667 1.505,-6.28c0,-2.507 -0.501,-4.521 -1.505,-6.043c-1.003,-1.517 -2.362,-2.564 -4.08,-3.138c-1.217,-0.396 -4.741,-0.593 -10.576,-0.593l-10.201,0l-0,19.975Zm-12.99,45.417l0,-78.706l27.433,-0c7.015,-0 12.027,0.708 15.033,2.122c3.007,1.416 5.477,3.866 7.408,7.356c1.932,3.488 2.898,7.67 2.898,12.536c-0,6.155 -1.474,11.112 -4.429,14.871c-2.952,3.758 -7.148,6.12 -12.591,7.086c2.793,2.005 5.102,4.198 6.928,6.578c1.827,2.378 4.313,6.649 7.462,12.802l7.839,15.355l-15.545,0l-9.428,-17.127c-3.396,-6.191 -5.7,-10.064 -6.917,-11.62c-1.217,-1.559 -2.508,-2.633 -3.866,-3.223c-1.359,-0.59 -3.543,-0.884 -6.551,-0.884l-2.684,-0l-0,32.854l-12.99,0Z" style="fill:#622d50;fill-rule:nonzero;"></path><rect x="1076.29" y="370.024" width="12.993" height="78.706" style="fill:#622d50;"></rect><path d="M1101.89,448.731l-0,-78.707l12.671,0l26.413,52.561l-0,-52.561l12.135,0l0,78.707l-13.101,-0l-25.983,-51.325l0,51.325l-12.135,-0Z" style="fill:#622d50;fill-rule:nonzero;"></path><path d="M1163.52,423.067l12.725,-1.502c1.431,10.059 6.121,15.088 14.068,15.088c3.934,-0 7.031,-1.03 9.285,-3.088c2.257,-2.057 3.381,-4.605 3.381,-7.649c0,-1.785 -0.393,-3.307 -1.179,-4.557c-0.789,-1.254 -1.986,-2.282 -3.598,-3.088c-1.611,-0.806 -5.511,-2.155 -11.702,-4.049c-5.548,-1.677 -9.611,-3.501 -12.186,-5.467c-2.58,-1.965 -4.63,-4.551 -6.148,-7.75c-1.522,-3.202 -2.284,-6.645 -2.284,-10.33c-0,-4.289 0.975,-8.153 2.927,-11.586c1.95,-3.433 4.644,-6.025 8.08,-7.777c3.436,-1.752 7.676,-2.63 12.725,-2.63c7.588,-0 13.508,2.06 17.769,6.175c4.259,4.117 6.512,10.004 6.763,17.663l-13.044,0.698c-0.572,-4.223 -1.81,-7.175 -3.703,-8.86c-1.899,-1.68 -4.6,-2.52 -8.107,-2.52c-3.511,-0 -6.212,0.732 -8.109,2.192c-1.895,1.464 -2.843,3.285 -2.843,5.46c-0,2.142 0.86,3.945 2.582,5.405c1.721,1.463 5.676,3.074 11.867,4.826c6.551,1.901 11.282,3.893 14.196,5.987c2.915,2.095 5.141,4.796 6.68,8.107c1.539,3.31 2.308,7.327 2.308,12.051c-0,6.835 -2.101,12.577 -6.308,17.228c-4.205,4.653 -10.783,6.979 -19.729,6.979c-15.823,-0 -24.627,-9.002 -26.416,-27.006" style="fill:#622d50;fill-rule:nonzero;"></path><path d="M1226.82,370.024l12.994,-0l-0,42.629c-0,6.622 0.158,10.935 0.484,12.939c0.573,3.473 1.945,6.157 4.114,8.051c2.168,1.899 5.033,2.847 8.581,2.847c3.012,-0 5.469,-0.671 7.37,-2.013c1.902,-1.343 3.203,-3.202 3.901,-5.584c0.702,-2.38 1.05,-7.49 1.05,-15.329l0,-43.54l12.994,-0l-0,41.341c-0,10.56 -0.566,18.192 -1.692,22.898c-1.128,4.704 -3.669,8.516 -7.624,11.435c-3.955,2.918 -9.171,4.374 -15.651,4.374c-6.729,-0 -11.979,-1.206 -15.758,-3.622c-3.775,-2.416 -6.512,-5.815 -8.211,-10.201c-1.7,-4.385 -2.552,-12.464 -2.552,-24.241l0,-41.984Z" style="fill:#622d50;fill-rule:nonzero;"></path><path d="M1305.04,403.313l9.665,-0c5.906,-0 9.665,-0.261 11.275,-0.78c1.61,-0.518 2.914,-1.566 3.917,-3.141c1.004,-1.577 1.506,-3.667 1.506,-6.28c-0,-2.507 -0.502,-4.521 -1.506,-6.043c-1.003,-1.517 -2.362,-2.564 -4.079,-3.138c-1.218,-0.396 -4.742,-0.593 -10.577,-0.593l-10.201,0l0,19.975Zm-12.989,45.417l-0,-78.706l27.432,-0c7.015,-0 12.027,0.708 15.033,2.122c3.007,1.416 5.477,3.866 7.409,7.356c1.931,3.488 2.897,7.67 2.897,12.536c0,6.155 -1.474,11.112 -4.429,14.871c-2.952,3.758 -7.148,6.12 -12.59,7.086c2.792,2.005 5.101,4.198 6.927,6.578c1.827,2.378 4.313,6.649 7.462,12.802l7.839,15.355l-15.545,0l-9.428,-17.127c-3.396,-6.191 -5.699,-10.064 -6.917,-11.62c-1.217,-1.559 -2.508,-2.633 -3.866,-3.223c-1.359,-0.59 -3.542,-0.884 -6.551,-0.884l-2.684,-0l0,32.854l-12.989,0Z" style="fill:#622d50;fill-rule:nonzero;"></path><path d="M1391.34,417.594l-8.909,-29.209l-8.743,29.209l17.652,-0Zm23.973,31.137l-14.124,-0l-5.654,-17.826l-25.833,0l-5.338,17.826l-13.85,-0l25.132,-78.707l13.799,0l25.868,78.707Z" style="fill:#622d50;fill-rule:nonzero;"></path><path d="M1422.3,448.731l0,-78.707l12.671,0l26.413,52.561l0,-52.561l12.136,0l-0,78.707l-13.102,-0l-25.982,-51.325l-0,51.325l-12.136,-0Z" style="fill:#622d50;fill-rule:nonzero;"></path><path d="M1528.54,419.793l12.617,4.887c-1.969,8.804 -5.242,15.236 -9.824,19.299c-4.582,4.063 -10.218,6.093 -16.91,6.093c-8.412,0 -15.23,-3.239 -20.456,-9.716c-6.012,-7.482 -9.022,-17.574 -9.022,-30.279c0,-13.424 3.028,-23.925 9.083,-31.517c5.266,-6.584 12.343,-9.879 21.228,-9.879c7.235,0 13.291,2.472 18.164,7.413c3.474,3.507 6.02,8.712 7.629,15.622l-12.884,3.758c-0.824,-4.259 -2.465,-7.526 -4.921,-9.801c-2.458,-2.27 -5.351,-3.408 -8.686,-3.408c-4.768,-0 -8.659,2.076 -11.671,6.228c-3.012,4.152 -4.518,11.007 -4.518,20.563c0,9.913 1.467,16.965 4.402,21.151c2.936,4.189 6.747,6.283 11.435,6.283c3.435,-0 6.408,-1.332 8.912,-3.999c2.504,-2.666 4.315,-6.9 5.422,-12.698" style="fill:#622d50;fill-rule:nonzero;"></path><path d="M1552.33,448.731l-0,-78.707l47.887,0l0,13.315l-34.898,-0l0,17.449l32.428,0l0,13.26l-32.428,0l0,21.368l36.079,0l-0,13.315l-49.068,-0Z" style="fill:#622d50;fill-rule:nonzero;"></path></svg>